<?xml version="1.0" encoding="UTF-8" standalone="no"?>
<!DOCTYPE svg PUBLIC "-//W3C//DTD SVG 1.1//EN" "http://www.w3.org/Graphics/SVG/1.1/DTD/svg11.dtd">
<svg width="100%" height="100%" viewBox="0 0 617 616" version="1.1" xmlns="http://www.w3.org/2000/svg" xmlns:xlink="http://www.w3.org/1999/xlink" xml:space="preserve" xmlns:serif="http://www.serif.com/" style="fill-rule:evenodd;clip-rule:evenodd;stroke-linejoin:round;stroke-miterlimit:2;">
    <g transform="matrix(1,0,0,1,-644,0)">
        <g id="close" transform="matrix(1,0,0,1,644.895,0)">
            <rect x="0" y="0" width="616" height="616" style="fill:none;"/>
            <g transform="matrix(1,0,0,1,-1995,0)">
                <g transform="matrix(1,0,0,1,-0.45828,0)">
                    <rect x="1995.46" y="0" width="615.458" height="615.458" style="fill:none;"/>
                </g>
                <g transform="matrix(-0.813351,-0.813351,-1.15544,1.15544,2630.63,480.765)">
                    <path d="M585.682,67.016C585.682,49.358 565.317,35.023 540.233,35.023L74.993,35.023C49.909,35.023 29.544,49.358 29.544,67.016C29.544,84.673 49.909,99.008 74.993,99.008L540.233,99.008C565.317,99.008 585.682,84.673 585.682,67.016Z" style="fill:white;"/>
                </g>
                <g transform="matrix(0.813351,-0.813351,1.15544,1.15544,1975.37,480.765)">
                    <path d="M585.682,67.016C585.682,49.358 565.317,35.023 540.233,35.023L74.993,35.023C49.909,35.023 29.544,49.358 29.544,67.016C29.544,84.673 49.909,99.008 74.993,99.008L540.233,99.008C565.317,99.008 585.682,84.673 585.682,67.016Z" style="fill:white;"/>
                </g>
            </g>
        </g>
    </g>
</svg>
