<?xml version="1.0" encoding="UTF-8" standalone="no"?>
<!DOCTYPE svg PUBLIC "-//W3C//DTD SVG 1.1//EN" "http://www.w3.org/Graphics/SVG/1.1/DTD/svg11.dtd">
<svg width="100%" height="100%" viewBox="0 0 227 227" version="1.1" xmlns="http://www.w3.org/2000/svg" xmlns:xlink="http://www.w3.org/1999/xlink" xml:space="preserve" xmlns:serif="http://www.serif.com/" style="fill-rule:evenodd;clip-rule:evenodd;stroke-linejoin:round;stroke-miterlimit:2;">
    <g transform="matrix(1,0,0,1,-828,0)">
        <g id="boarding-icon" transform="matrix(1,0,0,1,-0.906142,0)">
            <rect x="828.906" y="0" width="226.906" height="226.906" style="fill:none;"/>
            <g id="boarding-icon.svg" transform="matrix(1,0,0,1,942.359,113.453)">
                <g transform="matrix(1,0,0,1,-92.735,-95.9475)">
                    <g id="boarding-icon1" serif:id="boarding-icon" transform="matrix(1,0,0,1,-1289,-1301)">
                        <g id="Path_360" transform="matrix(1,0,0,1,1299,1313.68)">
                            <path d="M83,0C128.84,0 166,37.384 166,83.5C166,129.616 128.84,167 83,167C37.16,167 0,129.616 0,83.5C0,37.384 37.16,0 83,0Z" style="fill:rgb(2,60,186);fill-rule:nonzero;"/>
                        </g>
                        <g id="Path_7" transform="matrix(1,0,0,1,1289,2195.9)">
                            <g id="Group_15">
                                <path id="Path_71" serif:id="Path_7" d="M96.284,-880.349C96.595,-880.272 96.511,-880.016 96.203,-880.028C95.061,-879.932 93.911,-880.087 92.834,-880.48C93.971,-880.781 95.173,-880.736 96.284,-880.349ZM166.484,-781.638C166.424,-782.203 166.424,-782.773 166.484,-783.338C166.52,-783.611 166.538,-783.887 166.578,-784.159C166.618,-784.431 166.664,-784.7 166.72,-784.968C166.834,-785.503 166.979,-786.032 167.142,-786.559L167.397,-787.349C167.487,-787.612 167.549,-787.88 167.626,-788.149C167.659,-787.869 167.674,-787.586 167.669,-787.304C167.66,-787.026 167.639,-786.749 167.611,-786.474C167.555,-785.923 167.463,-785.374 167.354,-784.838C167.298,-784.568 167.238,-784.299 167.176,-784.03C167.114,-783.761 167.052,-783.493 166.966,-783.23C166.8,-782.693 166.639,-782.167 166.487,-781.638L166.484,-781.638ZM29.1,-733.757C29.955,-732.998 30.818,-732.252 31.688,-731.517C31.902,-731.33 32.125,-731.155 32.355,-730.985L33.035,-730.47L34.397,-729.45C35.297,-728.757 36.252,-728.15 37.197,-727.524L38.614,-726.596L38.97,-726.366L39.337,-726.151L40.068,-725.723L41.528,-724.868L42.257,-724.44L42.622,-724.226L42.997,-724.026L45.986,-722.437L46.357,-722.237L46.739,-722.052L47.502,-721.683L49.022,-720.935L49.781,-720.556C50.032,-720.427 50.281,-720.3 50.547,-720.189L52.093,-719.481L53.302,-718.924C53.707,-718.741 54.102,-718.548 54.524,-718.394L57.007,-717.431C57.423,-717.276 57.835,-717.108 58.255,-716.965L59.522,-716.556L62.061,-715.749C62.917,-715.507 63.779,-715.293 64.636,-715.065C65.493,-714.837 66.347,-714.593 67.22,-714.428C68.959,-714.069 70.681,-713.65 72.435,-713.386L75.062,-712.939L77.708,-712.625C79.466,-712.379 81.242,-712.317 83.008,-712.193C83.891,-712.117 84.779,-712.133 85.665,-712.116L88.32,-712.087L90.975,-712.187L92.3,-712.242C92.521,-712.253 92.742,-712.256 92.963,-712.274L93.623,-712.335C100.154,-712.773 106.616,-713.933 112.892,-715.792L114.266,-716.204C114.718,-716.354 115.166,-716.519 115.621,-716.675L118.331,-717.62L121,-718.691L122.334,-719.222L123.64,-719.814L126.247,-721L128.8,-722.3C129.225,-722.519 129.653,-722.731 130.076,-722.956L131.322,-723.668C132.15,-724.146 132.986,-724.611 133.807,-725.101L136.226,-726.645C136.626,-726.907 137.039,-727.145 137.426,-727.429L138.597,-728.259L139.766,-729.091L140.349,-729.507L140.641,-729.716L140.924,-729.938L143.176,-731.716C143.937,-732.294 144.643,-732.943 145.363,-733.57L146.442,-734.517L146.978,-734.991C147.158,-735.149 147.323,-735.322 147.497,-735.491L149.549,-737.491L150.059,-737.991L150.546,-738.517L151.517,-739.571C155.527,-743.818 159.295,-748.286 162.805,-752.954C166.998,-758.708 170.115,-765.173 172.005,-772.037C172.164,-772.607 172.346,-773.169 172.494,-773.737C172.642,-774.305 172.788,-774.881 172.934,-775.452C173.228,-776.593 173.569,-777.719 173.815,-778.864C173.954,-779.433 174.093,-779.999 174.231,-780.564C174.304,-780.847 174.375,-781.129 174.448,-781.411C174.521,-781.693 174.598,-781.973 174.648,-782.258C174.888,-783.391 175.14,-784.518 175.405,-785.637L175.555,-786.285L175.673,-786.938L175.902,-788.248C176.046,-789.123 176.209,-789.999 176.327,-790.881L176.616,-793.536L176.758,-794.866C176.807,-795.309 176.816,-795.755 176.846,-796.199C176.94,-797.978 177.082,-799.759 177.075,-801.539C177.094,-802.43 177.114,-803.321 177.135,-804.211C177.12,-805.1 177.105,-805.989 177.101,-806.878C177.101,-807.434 177.091,-807.989 177.071,-808.544C177.05,-809.099 176.979,-809.65 176.921,-810.207C176.863,-810.764 176.786,-811.321 176.7,-811.885C176.655,-812.166 176.61,-812.449 176.563,-812.733C176.516,-813.017 176.463,-813.303 176.391,-813.587C176.127,-814.671 175.924,-815.75 175.756,-816.844C175.715,-817.118 175.672,-817.392 175.632,-817.667L175.484,-818.489C175.384,-819.04 175.293,-819.596 175.203,-820.16C175.113,-820.724 175.025,-821.295 174.933,-821.874C174.841,-822.453 174.699,-823.03 174.577,-823.622C174.455,-824.214 174.322,-824.816 174.182,-825.43C174.111,-825.737 174.04,-826.047 173.963,-826.359C173.886,-826.671 173.781,-826.978 173.686,-827.292C174.303,-826.559 174.782,-825.72 175.101,-824.817C175.401,-824.017 175.583,-823.258 175.774,-822.546C178.487,-811.637 179.293,-800.341 178.156,-789.157L177.794,-786.042C177.635,-785.008 177.457,-783.977 177.294,-782.942L177.035,-781.393L176.703,-779.857C176.474,-778.834 176.268,-777.805 176.015,-776.787C175.451,-774.766 174.936,-772.725 174.209,-770.747L173.692,-769.255L173.428,-768.51L173.128,-767.778C172.728,-766.803 172.321,-765.83 171.908,-764.86C171.721,-764.397 171.488,-763.953 171.28,-763.499L170.641,-762.14L170.011,-760.776C169.911,-760.546 169.797,-760.323 169.681,-760.1L169.338,-759.43C168.885,-758.533 168.434,-757.636 167.983,-756.738C167.509,-755.851 167.012,-754.976 166.531,-754.091L165.804,-752.764L165.023,-751.47C164.5,-750.608 163.987,-749.739 163.455,-748.881C162.898,-748.041 162.339,-747.202 161.78,-746.363L161.36,-745.734C161.221,-745.524 161.081,-745.313 160.929,-745.113L160.029,-743.897C156.453,-739.053 152.339,-734.63 147.766,-730.714C143.19,-726.794 138.257,-723.312 133.03,-720.314C127.704,-717.312 122.154,-714.725 116.43,-712.578C115.669,-712.253 114.88,-711.996 114.095,-711.728L111.723,-710.936C111.328,-710.798 110.923,-710.694 110.523,-710.583L109.314,-710.255L106.887,-709.613L104.427,-709.103L103.194,-708.855C102.784,-708.775 102.375,-708.683 101.959,-708.631L99.48,-708.272C98.652,-708.161 97.829,-708.021 96.999,-707.965C93.638,-707.607 90.255,-707.501 86.878,-707.648C86.031,-707.695 85.184,-707.75 84.337,-707.813L83.704,-707.863C83.492,-707.885 83.282,-707.916 83.069,-707.943L81.806,-708.12C80.965,-708.243 80.125,-708.375 79.291,-708.52C79.081,-708.552 78.873,-708.598 78.665,-708.647L78.043,-708.791L76.804,-709.091C76.15,-709.255 75.483,-709.408 74.804,-709.551C74.465,-709.615 74.129,-709.713 73.788,-709.793L72.763,-710.036C71.388,-710.357 69.975,-710.615 68.573,-710.984C67.166,-711.335 65.732,-711.618 64.336,-712.041L62.236,-712.633C61.889,-712.733 61.536,-712.825 61.196,-712.939L60.173,-713.29L57.122,-714.357L54.133,-715.577L53.387,-715.884L53.014,-716.039L52.649,-716.21L51.189,-716.896L49.731,-717.585L49.004,-717.932L48.294,-718.311L45.457,-719.835C45.219,-719.958 44.99,-720.097 44.757,-720.235L44.067,-720.65L42.7,-721.5C42.243,-721.78 41.78,-722.051 41.33,-722.338L39.998,-723.238L38.669,-724.138C38.227,-724.438 37.779,-724.732 37.359,-725.061L34.8,-726.986C34.369,-727.299 33.964,-727.648 33.552,-727.986L32.323,-729.011L31.096,-730.036C30.696,-730.389 30.309,-730.755 29.917,-731.114L28.74,-732.2L28.155,-732.741C27.955,-732.92 27.765,-733.102 27.58,-733.295L25.343,-735.568L24.788,-736.137L24.256,-736.731L23.2,-737.918L22.143,-739.106C21.963,-739.301 21.798,-739.506 21.631,-739.715L21.131,-740.333C20.466,-741.159 19.793,-741.977 19.141,-742.809C18.969,-743.082 18.819,-743.368 18.691,-743.664L18.848,-744.013C22.067,-740.401 25.49,-736.977 29.1,-733.757ZM10.826,-812.147L10.642,-811.647L10.485,-811.147L10.178,-810.131C9.978,-809.45 9.784,-808.763 9.595,-808.07L9.524,-807.81L9.47,-807.548L9.363,-807.021C9.297,-806.668 9.228,-806.314 9.163,-805.96C9.032,-805.25 8.91,-804.533 8.801,-803.811C8.73,-803.086 8.672,-802.356 8.625,-801.62C8.601,-801.252 8.582,-800.883 8.565,-800.513C8.548,-800.143 8.522,-799.771 8.541,-799.398C8.562,-798.653 8.597,-797.898 8.648,-797.15C8.685,-796.39 8.764,-795.634 8.886,-794.883C9.064,-793.789 9.195,-792.699 9.291,-791.608C9.441,-790.523 9.563,-789.44 9.664,-788.352L9.737,-787.536L9.844,-786.726L10.05,-785.103C10.119,-784.562 10.174,-784.017 10.25,-783.477L10.533,-781.865C11.364,-777.058 12.621,-772.335 14.288,-767.75C15.975,-763.105 18.169,-758.66 20.83,-754.496C20.935,-754.316 21.053,-754.144 21.175,-753.972C21.297,-753.8 21.419,-753.624 21.544,-753.447C21.793,-753.091 22.044,-752.723 22.295,-752.328C22.546,-751.933 22.795,-751.51 23.03,-751.046C23.265,-750.582 23.536,-750.105 23.774,-749.556C23.392,-749.924 23.023,-750.291 22.674,-750.656C22.341,-751.037 22.018,-751.417 21.707,-751.796C21.394,-752.174 21.094,-752.551 20.807,-752.925C20.52,-753.299 20.219,-753.663 19.969,-754.051C18.94,-755.583 17.962,-757.038 17.069,-758.527C13.892,-763.538 11.389,-768.947 9.626,-774.613C7.865,-780.269 6.894,-786.141 6.74,-792.062C6.727,-793.082 6.707,-794.1 6.678,-795.117L6.667,-795.498L6.676,-795.88L6.689,-796.645L6.702,-798.174L6.702,-799.702L6.762,-801.231L6.803,-802.761L6.818,-803.526L6.818,-803.909L6.844,-804.291C6.906,-805.31 6.955,-806.33 6.99,-807.353C6.999,-807.609 7.003,-807.865 7.016,-808.121L7.074,-808.886L7.174,-810.421C7.202,-810.934 7.227,-811.447 7.249,-811.962C7.275,-812.477 7.337,-812.986 7.371,-813.501C7.405,-814.016 7.448,-814.53 7.48,-815.047L7.525,-815.824C7.54,-816.084 7.549,-816.344 7.579,-816.601C7.924,-821.973 9.334,-827.224 11.728,-832.046C13.617,-835.664 15.603,-839.201 17.728,-842.661C19.9,-846.094 22.231,-849.428 24.721,-852.661C25.881,-854.002 26.959,-855.412 27.948,-856.884C29.277,-859.1 28.986,-860.07 27.071,-859.525C26.187,-859.243 25.359,-858.807 24.626,-858.238C24.204,-857.924 23.809,-857.576 23.444,-857.198C23.062,-856.816 22.687,-856.406 22.32,-855.98C18.758,-851.759 15.405,-847.655 12.201,-843.251C11.852,-842.772 11.505,-842.288 11.161,-841.799C10.822,-841.307 10.52,-840.799 10.2,-840.287C9.88,-839.775 9.578,-839.261 9.265,-838.747L8.802,-837.969L8.382,-837.169C7.827,-836.096 7.261,-835.02 6.735,-833.922C6.245,-832.811 5.761,-831.693 5.282,-830.567C3.489,-826 2.034,-821.307 0.929,-816.527C0.788,-815.888 0.66,-815.246 0.545,-814.6C0.436,-813.954 0.311,-813.308 0.266,-812.652C0.146,-811.343 0.066,-810.029 0,-808.717C0,-807.728 0.007,-806.73 0.009,-805.73L0.015,-804.23L0.081,-802.73C0.12,-801.73 0.148,-800.739 0.152,-799.751C0.197,-798.763 0.231,-797.78 0.227,-796.804C0.236,-791.404 0.732,-786.015 1.711,-780.704C2.696,-775.353 4.228,-770.118 6.283,-765.08C6.806,-763.87 7.512,-762.548 7.302,-761.542C6.828,-761.728 6.545,-762.489 6.226,-763.073C6.059,-763.38 5.9,-763.699 5.741,-764.018C5.582,-764.337 5.415,-764.651 5.267,-764.966C3.892,-767.738 2.642,-768.555 0.88,-768.052C-0.22,-767.737 0.052,-765.881 0.803,-763.629C0.884,-763.387 0.964,-763.146 1.043,-762.905C1.122,-762.664 1.219,-762.43 1.305,-762.193C1.478,-761.718 1.652,-761.244 1.826,-760.771L2.345,-759.347C2.518,-758.872 2.688,-758.394 2.892,-757.931C3.655,-756.01 4.555,-754.147 5.583,-752.354C6.756,-750.254 8.062,-748.243 9.321,-746.203L11.33,-743.221L11.83,-742.475L12.362,-741.751L13.426,-740.301C16.265,-736.411 19.425,-732.767 22.874,-729.406C23.715,-728.542 24.624,-727.752 25.512,-726.939L26.852,-725.725L27.189,-725.425L27.536,-725.136L28.231,-724.558L29.625,-723.404L30.325,-722.827C30.557,-722.633 30.79,-722.441 31.035,-722.264L33.93,-720.085C37.864,-717.248 42.007,-714.711 46.322,-712.496C52.491,-709.418 59.009,-707.096 65.734,-705.581C72.44,-704.071 79.28,-703.231 86.152,-703.075L87.58,-703.033L88.296,-703.011C88.534,-703.011 88.772,-703.011 89.01,-703.017L91.868,-703.058L93.298,-703.082L94.726,-703.172L97.582,-703.372L98.223,-703.421L98.862,-703.498L100.14,-703.657L102.696,-703.983C103.123,-704.03 103.543,-704.117 103.968,-704.189L105.235,-704.415L107.772,-704.874C108.61,-705.058 109.447,-705.257 110.285,-705.449C111.123,-705.641 111.962,-705.829 112.792,-706.049L115.273,-706.749L116.512,-707.104L117.132,-707.282L117.743,-707.482C124.287,-709.588 130.609,-712.33 136.617,-715.67L138.217,-716.559L138.617,-716.782L139.007,-717.021L139.783,-717.502L141.338,-718.47L142.114,-718.956C142.371,-719.119 142.633,-719.277 142.882,-719.456L145.882,-721.548C146.388,-721.89 146.866,-722.269 147.349,-722.641L148.796,-723.762C149.276,-724.139 149.763,-724.507 150.235,-724.893L151.625,-726.083L153.01,-727.278C153.242,-727.478 153.473,-727.678 153.7,-727.878L154.365,-728.507L157.011,-731.032L159.528,-733.681C163.223,-737.699 166.572,-742.021 169.54,-746.601L170.634,-748.331L171.179,-749.197C171.366,-749.483 171.522,-749.787 171.694,-750.081C172.365,-751.269 173.047,-752.451 173.694,-753.649L175.53,-757.306C175.689,-757.606 175.824,-757.921 175.961,-758.233L176.375,-759.168L177.201,-761.039C177.641,-761.992 177.994,-762.981 178.378,-763.958L178.946,-765.426C179.135,-765.916 179.334,-766.402 179.493,-766.902C180.153,-768.894 180.874,-770.869 181.414,-772.902C182.59,-776.937 183.52,-781.04 184.199,-785.188L184.632,-788.31C184.703,-788.831 184.78,-789.351 184.842,-789.873L184.984,-791.442L185.261,-794.583C185.315,-795.631 185.349,-796.683 185.392,-797.73L185.45,-799.305L185.465,-799.699L185.465,-800.093L185.459,-800.881L185.42,-804.033C185.411,-804.296 185.42,-804.559 185.401,-804.821L185.354,-805.609L185.154,-808.759L185.1,-809.547C185.076,-809.809 185.044,-810.07 185.014,-810.332C184.881,-811.532 184.73,-812.726 184.562,-813.914C184.491,-814.514 184.362,-815.099 184.255,-815.689L183.912,-817.457L183.567,-819.221L183.145,-820.969L182.729,-822.719C182.587,-823.301 182.472,-823.891 182.302,-824.467C181.942,-825.789 181.568,-827.104 181.181,-828.413C180.75,-829.707 180.281,-830.987 179.819,-832.263C179.699,-832.581 179.592,-832.903 179.459,-833.215L179.059,-834.152C178.789,-834.774 178.52,-835.396 178.253,-836.017L177.846,-836.945L177.64,-837.408L177.415,-837.861L176.506,-839.668C174.063,-844.427 171.2,-848.958 167.95,-853.207C164.405,-857.686 160.527,-861.891 156.35,-865.787C155.968,-866.172 155.566,-866.537 155.145,-866.879C154.748,-867.194 154.332,-867.486 153.901,-867.753C153.306,-868.21 152.566,-868.436 151.817,-868.389C151.412,-868.289 151.489,-867.818 151.952,-867.08C152.245,-866.626 152.569,-866.194 152.923,-865.786C153.131,-865.541 153.359,-865.284 153.607,-865.013C153.849,-864.735 154.107,-864.438 154.379,-864.134C154.744,-863.728 155.095,-863.306 155.479,-862.921C158.903,-859.406 161.929,-855.524 164.504,-851.347C167.011,-847.216 169.157,-842.877 170.918,-838.377C171.197,-837.639 171.467,-836.896 171.718,-836.142C171.845,-835.764 171.973,-835.386 172.089,-835C172.205,-834.614 172.289,-834.214 172.383,-833.815C172.572,-833.015 172.737,-832.201 172.876,-831.363C172.908,-831.154 172.942,-830.942 172.976,-830.73C173.01,-830.518 173.021,-830.298 173.04,-830.079C173.077,-829.641 173.105,-829.197 173.124,-828.746C172.991,-829.093 172.861,-829.437 172.736,-829.778C172.605,-830.118 172.489,-830.459 172.344,-830.786C172.072,-831.445 171.803,-832.091 171.538,-832.726C171.281,-833.363 171.03,-833.989 170.779,-834.605C170.512,-835.212 170.248,-835.811 169.986,-836.4C169.724,-836.989 169.473,-837.574 169.233,-838.155C169.117,-838.447 168.982,-838.729 168.847,-839.009C168.712,-839.289 168.585,-839.57 168.455,-839.849C168.198,-840.409 167.945,-840.963 167.692,-841.513C167.568,-841.789 167.443,-842.065 167.321,-842.339C167.199,-842.613 167.053,-842.877 166.921,-843.146C166.625,-843.741 166.321,-844.337 166.01,-844.932L165.54,-845.825L165.302,-846.272C165.221,-846.419 165.13,-846.563 165.047,-846.708C164.354,-847.868 163.662,-849.028 162.969,-850.189C162.236,-851.32 161.517,-852.456 160.838,-853.605C160.122,-854.726 159.425,-855.847 158.797,-856.998C158.691,-857.194 158.566,-857.378 158.422,-857.548C158.278,-857.712 158.122,-857.864 157.967,-858.012C157.652,-858.307 157.324,-858.582 157.032,-858.895L155.76,-860.276L155.445,-860.623L155.115,-860.957L154.461,-861.627L153.161,-862.978L152.52,-863.659C152.306,-863.885 152.078,-864.097 151.857,-864.318C150.969,-865.191 150.103,-866.088 149.228,-866.975C148.327,-867.834 147.437,-868.705 146.558,-869.59C146.44,-869.709 146.326,-869.825 146.213,-869.939C146.1,-870.053 145.988,-870.159 145.876,-870.265C145.659,-870.479 145.458,-870.689 145.269,-870.894C144.92,-871.266 144.6,-871.663 144.31,-872.083C143.83,-872.741 143.532,-873.515 143.446,-874.325C143.217,-875.893 142.472,-877.341 141.33,-878.439C139.619,-880.128 137.66,-881.545 135.519,-882.639C134.942,-882.951 134.378,-883.288 133.808,-883.618C133.227,-883.928 132.646,-884.239 132.058,-884.533L129.796,-885.659C129.026,-886.004 128.254,-886.338 127.484,-886.671L126.326,-887.164C125.938,-887.322 125.558,-887.5 125.162,-887.634C124.377,-887.919 123.593,-888.195 122.808,-888.463L121.631,-888.855C121.431,-888.918 121.241,-888.984 121.043,-889.043L120.443,-889.203C119.648,-889.412 118.855,-889.608 118.065,-889.791C116.506,-890.153 114.924,-890.404 113.33,-890.542C112.839,-890.59 112.354,-890.648 111.872,-890.721C111.383,-890.775 110.898,-890.84 110.416,-890.928C109.429,-891.102 108.462,-891.375 107.53,-891.744C106.638,-892.076 105.73,-892.365 104.82,-892.662L103.448,-893.092L102.758,-893.299L102.058,-893.47C101.125,-893.695 100.183,-893.906 99.234,-894.102C98.76,-894.194 98.286,-894.302 97.806,-894.37C97.326,-894.438 96.843,-894.5 96.361,-894.559C95.394,-894.676 94.42,-894.773 93.44,-894.85C92.46,-894.898 91.474,-894.897 90.481,-894.888C89.986,-894.881 89.489,-894.869 88.991,-894.851C88.742,-894.839 88.491,-894.836 88.245,-894.813L87.497,-894.737C86.497,-894.628 85.497,-894.493 84.497,-894.331C84.291,-894.3 84.083,-894.285 83.875,-894.286L83.189,-894.295C82.717,-894.301 82.224,-894.321 81.763,-894.295C80.272,-894.299 78.784,-894.174 77.314,-893.924C76.701,-893.791 76.085,-893.665 75.468,-893.547L74.542,-893.374C74.233,-893.318 73.922,-893.266 73.616,-893.192C72.383,-892.918 71.144,-892.659 69.904,-892.392C69.282,-892.273 68.673,-892.092 68.06,-891.932C67.447,-891.772 66.836,-891.6 66.227,-891.426L65.314,-891.161L64.859,-891.025C64.709,-890.977 64.559,-890.925 64.411,-890.868C63.811,-890.653 63.221,-890.43 62.633,-890.198L61.171,-889.628L60.438,-889.347L59.711,-889.036C58.744,-888.623 57.768,-888.216 56.793,-887.813C56.549,-887.713 56.302,-887.618 56.062,-887.505L55.339,-887.172L53.894,-886.507C52.931,-886.063 51.958,-885.639 51.021,-885.135L48.2,-883.688C47.274,-883.172 46.367,-882.626 45.462,-882.088L44.111,-881.274L42.811,-880.392C41.951,-879.797 41.093,-879.212 40.27,-878.592C39.196,-877.74 38.109,-876.9 37.026,-876.063C35.969,-875.185 34.926,-874.294 33.891,-873.407C33.762,-873.295 33.632,-873.187 33.507,-873.071L33.136,-872.719L32.401,-872.014C31.912,-871.543 31.431,-871.071 30.958,-870.596C30.724,-870.356 30.482,-870.128 30.258,-869.875L29.595,-869.124C29.16,-868.622 28.735,-868.117 28.321,-867.61C27.595,-866.745 26.989,-865.785 26.521,-864.757C26.178,-864.088 26.003,-863.345 26.011,-862.593C26.105,-861.443 27.083,-860.931 28.981,-861.284C30.058,-861.573 31.195,-861.55 32.26,-861.22C33.393,-860.838 34.623,-860.859 35.742,-861.279C37.363,-861.832 38.908,-862.586 40.342,-863.522C40.529,-863.645 40.723,-863.756 40.923,-863.855C41.114,-863.955 41.298,-864.044 41.481,-864.126C41.843,-864.292 42.191,-864.426 42.527,-864.547C43.18,-864.772 43.848,-864.949 44.527,-865.078C46.455,-865.404 48.305,-865.841 50.308,-866.365C50.803,-866.505 51.303,-866.662 51.808,-866.836C52.316,-867 52.846,-867.157 53.375,-867.35C53.904,-867.543 54.443,-867.75 54.992,-867.984L55.404,-868.165L55.831,-868.335C56.118,-868.45 56.408,-868.571 56.699,-868.698C60.583,-870.433 64.629,-871.78 68.778,-872.721C72.906,-873.654 77.098,-874.283 81.318,-874.603C86.565,-874.972 91.835,-874.817 97.051,-874.14C102.25,-873.463 107.392,-872.399 112.432,-870.956C112.925,-870.817 113.411,-870.687 113.888,-870.568C114.128,-870.511 114.364,-870.453 114.593,-870.382C114.822,-870.311 115.052,-870.254 115.277,-870.196C116.124,-869.969 116.986,-869.805 117.857,-869.704C119.241,-869.39 120.692,-869.58 121.948,-870.239C122.445,-870.524 123.037,-870.596 123.588,-870.439C124.404,-870.231 125.187,-869.913 125.917,-869.493C126.117,-869.393 126.309,-869.273 126.5,-869.156L127.07,-868.804L128.2,-868.092L129.313,-867.37C129.673,-867.115 130.023,-866.847 130.377,-866.584C131.077,-866.053 131.777,-865.522 132.459,-864.977C133.122,-864.4 133.777,-863.817 134.425,-863.23C133.906,-863.53 133.391,-863.848 132.879,-864.164C132.622,-864.321 132.369,-864.482 132.111,-864.635L131.32,-865.057C130.795,-865.332 130.269,-865.591 129.748,-865.818C129.243,-866.052 128.717,-866.234 128.176,-866.364C126.246,-866.816 125.976,-866.195 127.554,-864.793C131.517,-861.299 135.284,-857.588 138.837,-853.677C139.337,-853.091 139.823,-852.497 140.31,-851.902C140.797,-851.307 141.23,-850.657 141.71,-850.042C141.946,-849.733 142.186,-849.425 142.43,-849.119C142.557,-848.969 142.672,-848.81 142.79,-848.65C142.908,-848.49 143.028,-848.334 143.148,-848.175C143.633,-847.544 144.148,-846.924 144.707,-846.318C145.26,-845.676 145.79,-845.013 146.33,-844.358C146.596,-844.027 146.875,-843.705 147.13,-843.367L147.878,-842.337L148.629,-841.306C148.878,-840.961 149.137,-840.624 149.36,-840.261L150.75,-838.121C150.864,-837.942 150.988,-837.768 151.095,-837.584L151.415,-837.032L152.056,-835.932L152.704,-834.832C152.815,-834.651 152.912,-834.461 153.004,-834.272L153.304,-833.706L154.504,-831.45C154.864,-830.68 155.231,-829.913 155.604,-829.15C155.763,-828.816 155.934,-828.487 156.082,-828.15L156.504,-827.124L157.345,-825.066C157.596,-824.366 157.825,-823.666 158.068,-822.966C158.311,-822.266 158.568,-821.566 158.75,-820.847L159.357,-818.706L159.511,-818.171C159.565,-817.993 159.597,-817.81 159.642,-817.63L159.895,-816.546C160.062,-815.823 160.249,-815.105 160.412,-814.382C160.549,-813.653 160.692,-812.926 160.841,-812.2C160.941,-811.7 161.058,-811.208 161.141,-810.707L161.362,-809.2C161.508,-808.194 161.684,-807.191 161.75,-806.174L161.887,-804.653L161.958,-803.892L161.992,-803.511L162.007,-803.129L162.114,-800.069C162.147,-795.996 161.84,-791.927 161.198,-787.904C161.033,-787.021 160.874,-786.139 160.722,-785.259C160.658,-784.816 160.544,-784.384 160.448,-783.949L160.159,-782.649C160.064,-782.214 159.971,-781.78 159.878,-781.349C159.771,-780.918 159.649,-780.491 159.537,-780.062L159.203,-778.774L159.04,-778.129C158.986,-777.914 158.94,-777.698 158.866,-777.488C158.604,-776.642 158.354,-775.794 158.107,-774.942L157.925,-774.303C157.859,-774.092 157.783,-773.884 157.713,-773.674L157.293,-772.414L156.883,-771.147L156.783,-770.829L156.667,-770.518L156.435,-769.894C156.126,-769.061 155.835,-768.221 155.535,-767.377C155.262,-766.71 155.008,-766.044 154.772,-765.377C154.528,-764.716 154.33,-764.04 154.072,-763.404C153.83,-762.759 153.6,-762.114 153.382,-761.469C153.275,-761.145 153.17,-760.822 153.062,-760.5C152.954,-760.178 152.828,-759.87 152.71,-759.557C152.243,-758.304 151.857,-757.01 151.363,-755.786C150.893,-754.547 150.463,-753.275 149.935,-752.062C149.56,-751.148 149.435,-750.318 149.916,-750.045C150.529,-749.696 151.342,-750.957 152.032,-751.597C152.368,-751.911 152.676,-752.253 152.952,-752.62C153.244,-752.991 153.529,-753.379 153.801,-753.759C156.13,-757.025 158.199,-760.469 159.987,-764.059L160.332,-764.727C160.388,-764.839 160.448,-764.949 160.501,-765.062L160.658,-765.404L161.278,-766.773C161.69,-767.687 162.129,-768.589 162.478,-769.53C162.843,-770.463 163.224,-771.391 163.578,-772.33L164.547,-775.176C164.613,-775.376 164.671,-775.592 164.731,-775.808C164.791,-776.024 164.831,-776.247 164.903,-776.447C164.972,-776.821 165.232,-777.132 165.587,-777.267C165.592,-776.928 165.574,-776.589 165.533,-776.253C165.512,-776.082 165.486,-775.912 165.456,-775.741C165.422,-775.572 165.375,-775.404 165.327,-775.236C165.131,-774.565 164.89,-773.907 164.606,-773.268C164.488,-772.993 164.372,-772.717 164.263,-772.439L164.104,-772.022L163.928,-771.611C163.699,-771.063 163.481,-770.512 163.276,-769.957C163.07,-769.403 162.876,-768.845 162.676,-768.289L162.013,-766.651C160.009,-761.8 157.3,-757.271 153.974,-753.211C153.504,-752.635 153.054,-752.045 152.574,-751.478L151.116,-749.794L150.396,-748.946L150.218,-748.733L150.027,-748.533L149.65,-748.124C149.146,-747.577 148.646,-747.026 148.15,-746.471C147.668,-745.904 147.136,-745.38 146.623,-744.837C146.11,-744.294 145.596,-743.747 145.088,-743.192L143.501,-741.577L142.712,-740.753L142.32,-740.336L141.91,-739.936C135.758,-733.554 127.992,-728.954 119.438,-726.625C118.505,-726.399 117.57,-726.182 116.65,-725.925C116.187,-725.805 115.737,-725.657 115.271,-725.545C114.805,-725.433 114.343,-725.315 113.879,-725.192C113.415,-725.069 112.955,-724.941 112.496,-724.807L111.806,-724.607L111.106,-724.429C110.173,-724.189 109.239,-723.928 108.306,-723.645C104.418,-722.548 100.459,-721.721 96.457,-721.169L92.396,-720.769C91.039,-720.713 89.683,-720.669 88.35,-720.691C87.042,-720.77 85.74,-720.926 84.45,-721.16C83.218,-721.442 82.018,-721.851 80.869,-722.379C80.413,-722.58 79.937,-722.734 79.449,-722.838C78.92,-722.945 78.386,-723.023 77.849,-723.069C76.552,-723.2 75.269,-723.44 74.013,-723.787C72.785,-724.104 71.576,-724.49 70.391,-724.943C70.001,-725.083 69.609,-725.216 69.216,-725.343L68.052,-725.783C67.273,-726.068 66.492,-726.335 65.708,-726.583C64.932,-726.866 64.158,-727.151 63.373,-727.411C62.98,-727.544 62.587,-727.672 62.194,-727.794C61.802,-727.926 61.416,-728.077 61.025,-728.213C59.809,-728.62 58.616,-729.095 57.453,-729.635C56.285,-730.155 55.146,-730.738 54.041,-731.382C49.146,-734.238 44.527,-737.541 40.241,-741.248C35.592,-745.257 31.358,-749.721 27.6,-754.575L26.238,-756.429L25.552,-757.353L24.913,-758.309L23.624,-760.216C23.208,-760.861 22.824,-761.524 22.415,-762.175C21.579,-763.465 20.875,-764.83 20.115,-766.168L19.83,-766.668C19.74,-766.838 19.658,-767.012 19.573,-767.183L19.058,-768.215L18.537,-769.247L18.144,-770.021L18.028,-770.285C17.606,-771.239 17.196,-772.206 16.78,-773.171C16.671,-773.41 16.58,-773.658 16.495,-773.903L16.218,-774.638C16.033,-775.127 15.844,-775.613 15.65,-776.097C15.55,-776.338 15.45,-776.579 15.35,-776.819C15.25,-777.059 15.17,-777.304 15.076,-777.545C14.894,-778.028 14.701,-778.505 14.497,-778.978C14.297,-779.45 14.079,-779.916 13.849,-780.378C13.639,-780.842 13.429,-781.303 13.193,-781.754C12.692,-782.855 12.369,-784.027 12.235,-785.229C12.115,-786.046 11.986,-786.859 11.847,-787.67C11.729,-788.485 11.647,-789.304 11.532,-790.119C11.275,-791.746 11.17,-793.389 10.994,-795.028L10.932,-795.643C10.917,-795.848 10.913,-796.054 10.9,-796.26L10.842,-797.495L10.78,-798.731L10.75,-799.349C10.737,-799.555 10.729,-799.761 10.735,-799.968L10.756,-802.445L10.773,-803.685L10.865,-804.921C10.914,-805.546 10.964,-806.175 11.015,-806.808C11.041,-807.124 11.056,-807.443 11.09,-807.759L11.202,-808.709C11.268,-809.343 11.324,-809.98 11.361,-810.618C11.378,-810.937 11.389,-811.257 11.397,-811.577C11.42,-811.895 11.437,-812.213 11.448,-812.532C11.1,-812.324 10.891,-812.322 10.825,-812.147L10.826,-812.147Z" style="fill:rgb(255,207,114);fill-rule:nonzero;"/>
                            </g>
                        </g>
                        <g id="handshake-angle-solid_1_" transform="matrix(1,0,0,1,1314.04,1347.1)">
                            <path d="M100.4,47.297C100.4,47.298 100.4,49.216 100.4,49.216L112.217,37.4C113.999,35.622 115.001,33.205 115.001,30.688C115.001,28.171 113.999,25.754 112.217,23.976L98.98,10.759C97.202,8.977 94.785,7.975 92.268,7.975C89.751,7.975 87.334,8.977 85.556,10.759L78.756,17.559C78.289,17.505 77.819,17.476 77.349,17.474L58.37,17.474C52.185,17.473 46.927,22.172 46.235,28.318L46.167,28.318L46.167,48.657C46.212,52.345 49.258,55.355 52.947,55.355C56.635,55.355 59.681,52.345 59.726,48.657L59.726,33.742L86.845,33.742C94.281,33.742 100.4,39.861 100.4,47.297ZM65.15,39.165L65.15,48.656C65.15,55.351 59.641,60.859 52.947,60.859C46.252,60.859 40.743,55.351 40.743,48.656L40.743,28.556C34.594,29.61 29.573,34.116 27.862,40.115L25.062,49.878L12.659,62.284C10.877,64.062 9.875,66.479 9.875,68.996C9.875,71.513 10.877,73.93 12.659,75.708L25.9,88.945C27.678,90.727 30.095,91.729 32.612,91.729C35.129,91.729 37.546,90.727 39.324,88.945L45.714,82.555C45.867,82.555 46.019,82.572 46.172,82.572L73.285,82.572C77.748,82.571 81.42,78.899 81.421,74.436C81.418,73.513 81.263,72.597 80.963,71.724C80.963,71.724 81.423,71.724 81.424,71.724C85.883,71.724 89.552,68.055 89.552,63.596C89.552,61.514 88.752,59.51 87.319,58C91.744,57.13 94.968,53.221 94.98,48.712L94.98,48.64C94.962,43.446 90.683,39.181 85.489,39.182L65.15,39.182L65.15,39.165Z" style="fill:rgb(255,207,114);fill-rule:nonzero;"/>
                        </g>
                    </g>
                </g>
            </g>
        </g>
    </g>
</svg>
