<?xml version="1.0" encoding="UTF-8" standalone="no"?>
<!DOCTYPE svg PUBLIC "-//W3C//DTD SVG 1.1//EN" "http://www.w3.org/Graphics/SVG/1.1/DTD/svg11.dtd">
<svg width="100%" height="100%" viewBox="0 0 608 401" version="1.1" xmlns="http://www.w3.org/2000/svg" xmlns:xlink="http://www.w3.org/1999/xlink" xml:space="preserve" xmlns:serif="http://www.serif.com/" style="fill-rule:evenodd;clip-rule:evenodd;stroke-linejoin:round;stroke-miterlimit:2;">
    <g transform="matrix(1,0,0,1,2.51858,2.47997)">
        <g id="Group_35">
            <g>
                <path id="Union_1-2" d="M226.1,378.553C202.93,388.597 176.274,386.811 154.651,373.766C142.882,380.473 129.567,384 116.021,384C75.373,384 41.188,352.238 38.205,311.7C13.607,284.126 0.001,248.437 0.001,211.485C0.001,150.028 37.636,94.474 94.71,71.68C102.391,35.836 134.346,10.003 171.004,10.003C186.815,10.003 202.259,14.808 215.278,23.78C269.957,-11.243 341.414,-7.128 391.712,33.94C431.464,22.711 473.602,44.856 486.9,83.964C534.445,106.067 567.15,151.462 573.062,203.559C591.923,218.339 602.961,241.013 602.961,264.975C602.961,307.779 567.739,343.001 524.935,343.001C520.724,343.001 516.519,342.66 512.362,341.981C476.07,368.479 429.772,377.422 386.222,366.347C339.724,400.84 277.289,405.599 226.1,378.553Z" style="fill:rgb(2,60,186);fill-rule:nonzero;"/>
            </g>
        </g>
    </g>
</svg>
