<svg xmlns="http://www.w3.org/2000/svg" preserveAspectRatio="none" xmlns:xlink="http://www.w3.org/1999/xlink" width="1924" height="187.853" viewBox="0 0 1924 187.853">
  <defs>
    <filter id="Intersection_2" x="0" y="0" width="1924" height="187.853" filterUnits="userSpaceOnUse">
      <feOffset dx="5" dy="5" input="SourceAlpha"/>
      <feGaussianBlur result="blur"/>
      <feFlood flood-opacity="0.263"/>
      <feComposite operator="in" in2="blur"/>
      <feComposite in="SourceGraphic"/>
    </filter>
  </defs>
  <g transform="matrix(1, 0, 0, 1, 0, 0)" filter="url(#Intersection_2)">
    <path id="Intersection_2-2" data-name="Intersection 2" d="M406.076,195.48c-6.889-.144-13.937-.034-20.941.076-18.529.291-36.751.582-50.917-3.829a34.342,34.342,0,0,0-8.686-.445,206.07,206.07,0,0,1-22.033,2.372V15.674h1919v174.11q-12.348.483-25.036.78c-12.353.289-22.068.9-35.642.241-26.014-1.272-38.41-.728-65.322-.993,7.214-4.628,16.644-4.34,27.959-4.052,8.473.215,18,.431,28.455-1.417-26.5-1.158-47.2-2.061-71.475-3.125,0,3.342,2.106,9.09,3.151,9.387-18.594,2.51-73.36,2.912-91.409.695-.014.014-1.3-.236-1.3-.236-52.351,2.269-104-.643-156.318,3.455-17.386,1.366-39.293-.643-59.168-.785-62.716-.458-125.475-.653-188.161-1.219-10.792-.1-11.9-.813-22.554-1.621,4.887-1.276,8.258-2.255,15.752-3.909-21.73-1.362-26.322.147-24.217,3.436-14.472.468-28.943.931-46.669,1.508-2.841-1.475-6.713-3.479-10.556-5.478-.969.019-2.142.014-3.314.01a29.844,29.844,0,0,0-5.49.208c-9.952,4.721-22.642,6.593-47.669,5.752-9.987-.337-106.165,1.346-244.268,3.03-126.052,1.537-287.066,3.074-449.313,3.075C631.631,198.527,512.682,197.71,406.076,195.48Z" transform="translate(-303.5 -15.67)" fill="#023cba"/>
  </g>
</svg>
