<?xml version="1.0" encoding="UTF-8" standalone="no"?>
<!DOCTYPE svg PUBLIC "-//W3C//DTD SVG 1.1//EN" "http://www.w3.org/Graphics/SVG/1.1/DTD/svg11.dtd">
<svg width="100%" height="100%" viewBox="0 0 24005 10326" version="1.1" xmlns="http://www.w3.org/2000/svg" xmlns:xlink="http://www.w3.org/1999/xlink" xml:space="preserve" xmlns:serif="http://www.serif.com/" style="fill-rule:evenodd;clip-rule:evenodd;stroke-linejoin:round;stroke-miterlimit:2;">
    <g id="Artboard1" transform="matrix(1,0,0,1,0,-3179.15)">
        <g transform="matrix(1,0,0,1,720.159,-276.577)">
            <rect x="0" y="3179.15" width="24004.2" height="10325" style="fill:none;"/>
        </g>
        <g>
            <clipPath id="_clip1">
                <rect x="0" y="3179.15" width="24004.2" height="10325"/>
            </clipPath>
            <g clip-path="url(#_clip1)">
                <g transform="matrix(4.16667,0,0,4.16667,0,0.146673)">
                    <path d="M0.077,3194.91L0.051,3194.91L0.051,1436.05L18.428,1436.05L46.908,1406.55L107.935,1406.55L128.276,1398.42C148.62,1390.28 168.962,1398.42 168.962,1398.42L189.304,1394.35C209.647,1390.28 225.92,1378.07 225.92,1378.07L250.332,1365.87C257.196,1357.48 250.332,1365.87 274.742,1357.73C299.153,1349.59 274.742,1357.73 311.358,1341.46C328.903,1329.25 319.241,1334.59 335.769,1337.39C360.18,1333.32 335.769,1337.39 364.249,1333.32C392.728,1329.25 364.249,1333.32 400.865,1329.25C409.764,1325.44 400.865,1329.25 421.207,1329.25C430.537,1324.16 421.207,1329.25 437.481,1309.5C453.755,1289.74 461.892,1321.12 490.371,1312.98C505.119,1305.1 490.371,1312.98 518.849,1308.91C531.564,1304.59 518.849,1308.91 539.192,1309.5C559.535,1310.08 575.809,1292.64 575.809,1292.64L600.219,1280.43L624.63,1272.29L624.63,1253.31L640.904,1243.81L649.041,1227.66C657.178,1211.5 669.383,1216.92 669.383,1216.92L669.383,1203.13L689.726,1194.99C710.068,1186.86 689.726,1194.99 714.136,1178.72C718.205,1166 714.136,1178.72 726.342,1158.38C727.359,1151 730.919,1148.97 740.327,1145.92C743.633,1133.97 746.684,1129.9 746.684,1129.9L754.821,1117.69C762.958,1105.49 775.164,1101.42 775.164,1101.42L791.438,1089.21C807.711,1077.01 819.917,1097.35 819.917,1097.35L860.601,1138.03C860.601,1138.03 901.286,1174.65 929.765,1190.92L950.107,1178.72C970.45,1166.51 950.107,1178.72 978.587,1158.38L998.929,1166.51L1027.41,1190.92L1059.96,1211.27C1092.5,1231.61 1059.96,1211.27 1092.5,1235.68C1109.79,1243.81 1092.5,1235.68 1112.85,1253.31C1133.19,1270.94 1141.33,1253.31 1141.33,1253.31C1141.33,1253.31 1165.74,1284.5 1177.94,1288.57C1190.15,1292.64 1202.35,1309.5 1202.35,1309.5C1202.35,1309.5 1238.97,1317.05 1251.17,1309.5C1263.38,1301.94 1267.45,1325.18 1295.93,1329.25C1324.41,1333.32 1336.61,1337.39 1356.95,1337.39C1377.3,1337.39 1405.78,1337.39 1422.05,1333.32C1438.32,1329.25 1458.67,1329.25 1499.35,1325.18C1508.25,1315.01 1499.35,1325.18 1527.83,1309.5C1556.31,1293.81 1572.58,1309.5 1572.58,1309.5L1592.93,1329.25L1617.34,1329.25L1649.88,1341.46C1649.88,1341.46 1694.63,1348.79 1698.74,1366.09C1711.67,1372.48 1698.74,1366.09 1759.73,1361.8C1784.65,1357.48 1759.73,1361.8 1798.83,1361.8C1837.92,1361.8 1820.76,1361.8 1857.38,1357.73C1867.8,1354.17 1857.38,1357.73 1873.65,1357.73C1889.92,1357.73 1906.2,1353.66 1906.2,1353.66L1934.68,1345.53C1963.16,1337.39 1959.09,1341.46 1987.57,1337.39C2016.05,1333.32 1987.57,1337.39 2036.39,1337.39C2085.21,1337.39 2064.87,1345.53 2097.42,1345.53C2129.96,1345.53 2142.17,1349.59 2174.72,1349.59L2209.56,1349.59C2201.1,1363.27 2198.04,1373.55 2198.04,1373.55C2198.04,1373.55 2133.56,1414.31 2097.57,1438.31C2061.58,1462.3 2037.58,1462.3 1983.59,1492.3C1929.6,1522.29 1983.59,1492.3 1941.6,1539.24C1899.61,1586.19 1917.61,1540.29 1881.61,1564.28C1845.62,1588.28 1827.62,1594.28 1773.63,1620.91C1719.65,1647.54 1689.65,1684.26 1647.66,1690.9C1605.67,1697.54 1551.68,1768.24 1497.69,1786.24C1443.7,1804.24 1401.71,1804.24 1371.72,1786.24C1341.72,1768.24 1341.72,1768.24 1293.73,1756.08C1245.74,1743.92 1227.74,1720.25 1197.57,1723.49C1167.4,1726.72 1137.76,1714.25 1101.77,1723.49C1065.78,1732.72 1023.78,1720.25 987.792,1723.49C951.799,1726.72 927.804,1720.25 855.818,1702.26C783.833,1684.26 807.828,1690.26 741.841,1702.26C675.854,1714.25 699.85,1696.26 657.858,1702.26C615.866,1708.25 609.868,1738.25 543.881,1746.91C477.894,1755.58 459.897,1762.24 441.901,1746.91C423.905,1731.58 399.91,1732.25 369.916,1724.58C339.921,1716.92 327.924,1726.25 273.935,1724.58C219.946,1722.92 177.954,1702.26 177.954,1702.26L105.968,1702.26C105.968,1702.26 57.978,1738.25 39.981,1744.25C21.985,1750.25 0.077,1744.25 0.077,1744.25L0.077,3194.91ZM3616.53,1350.42L3655.64,1337.39C3704.46,1321.12 3675.98,1337.39 3700.39,1333.32C3724.8,1329.25 3700.39,1333.32 3724.8,1325.18C3735.45,1320.15 3724.8,1325.18 3737.01,1309.5C3749.21,1293.81 3765.49,1321.12 3777.69,1309.5C3789.9,1297.88 3806.17,1292.64 3806.17,1292.64L3838.72,1280.43L3871.27,1280.43L3903.81,1292.64C3911.62,1298.33 3913.09,1302.43 3916.02,1309.5C3925.1,1328.22 3932.29,1312.98 3968.91,1321.12C3985.89,1324.39 3968.91,1321.12 4001.46,1309.5L4021.8,1309.5C4021.8,1309.5 4042.14,1296.7 4066.55,1276.36C4077.81,1267.37 4073.93,1267.97 4082.83,1276.36C4099.1,1276.36 4107.24,1288.57 4107.24,1288.57C4107.24,1288.57 4151.99,1308.91 4180.47,1309.5C4208.95,1310.08 4208.95,1325.18 4225.22,1309.5C4241.5,1293.81 4257.77,1333.32 4257.77,1333.32C4257.77,1333.32 4265.95,1335.14 4278.01,1337.48C4257.91,1357.38 4211.3,1401.95 4179.15,1420.31C4137.16,1444.31 4179.15,1420.31 4161.16,1426.31C4143.16,1432.31 4137.16,1444.31 4113.17,1450.31C4089.17,1456.3 4071.18,1480.3 4041.18,1504.3C4011.19,1528.29 3957.2,1558.28 3933.2,1539.24C3909.21,1520.2 3873.21,1540.29 3849.22,1539.24C3825.22,1538.2 3801.23,1492.3 3753.24,1468.3C3705.25,1444.31 3717.25,1438.31 3699.25,1432.31C3681.59,1426.42 3646.62,1385.9 3616.53,1350.42ZM4692.02,1349.59C4712.64,1346.58 4721.11,1357.01 4737.85,1353.66C4758.19,1349.59 4737.5,1353.02 4774.47,1333.32C4778.53,1321.62 4771.29,1335.5 4798.88,1309.98C4823.67,1287.05 4838.55,1308.98 4838.55,1308.98C4838.55,1308.98 4896.52,1304.84 4941.27,1304.84C4986.03,1304.84 4941.27,1304.84 4998.23,1309.5C5055.19,1314.15 5038.92,1284.5 5059.26,1253.31C5079.6,1222.12 5075.53,1256.02 5095.88,1235.28C5114.18,1222.96 5120.29,1231.61 5120.29,1231.61L5136.51,1230.53L5149.27,1205.16L5156.9,1190.92C5156.9,1174.65 5185.38,1154.31 5185.38,1154.31C5183.19,1157.59 5185.38,1154.31 5185.38,1154.31C5186.73,1152.29 5189.73,1147.77 5195.94,1138.46C5200.01,1141.01 5198.6,1127.86 5213.86,1137.39C5226.01,1144.97 5230.13,1109.56 5230.13,1109.56L5254.54,1093.28L5283.02,1077.01L5327.78,1089.21L5360.33,1109.56L5401.01,1089.21C5401.01,1089.21 5417.28,1068.87 5433.56,1048.53C5449.83,1028.19 5482.38,1048.53 5482.38,1048.53L5507.3,1052.6L5531.2,1068.87L5559.68,1097.35L5580.02,1121.76L5608.5,1146.17C5608.5,1146.17 5681.73,1166.51 5693.94,1170.58C5706.14,1174.65 5760.05,1235.28 5760.05,1235.28L5760.05,1570.28C5759.36,1570.83 5654.78,1654.27 5630.86,1654.27C5606.87,1654.27 5576.87,1678.26 5576.87,1678.26C5576.87,1678.26 5462.9,1702.26 5426.9,1708.25C5390.91,1714.25 5312.93,1702.26 5282.93,1684.26C5252.94,1666.26 5252.94,1660.26 5216.95,1620.91C5180.95,1581.56 5168.96,1546.29 5132.96,1539.24C5096.97,1532.2 5030.98,1486.3 4941,1444.31C4851.02,1402.32 4887.01,1414.31 4827.02,1390.32C4767.04,1366.32 4827.02,1390.32 4785.03,1372.32C4750.09,1357.35 4731.76,1358.99 4692.02,1349.59Z" style="fill:rgb(2,60,186);fill-opacity:0.29;"/>
                    <g transform="matrix(0.517648,0,0,0.517648,-5930.54,657.675)">
                        <path d="M20661.6,1316.73C20484.5,1234.4 20355.4,1065.76 20328.6,864.968L20956.9,864.968L20956.9,709.204L20328.6,709.204C20366.7,423.819 20611.4,203.391 20907.1,203.391C21229.3,203.391 21490.8,464.936 21490.8,787.086C21490.8,851.475 21480.4,913.443 21461.1,971.385C21444.8,985.452 21421,1009.49 21421,1030.13L21406.3,1057.64L21381.7,1106.65L21350.3,1108.74C21350.3,1108.74 21338.5,1092.03 21303.2,1115.83C21263.9,1155.89 21271.7,1090.4 21232.4,1150.66C21193.1,1210.91 21224.6,1268.19 21114.5,1259.2C21004.5,1250.2 21091,1250.2 21004.5,1250.2C20918,1250.2 20806.1,1258.2 20806.1,1258.2C20806.1,1258.2 20777.3,1215.84 20729.4,1260.13C20676.1,1309.43 20690.1,1282.62 20682.3,1305.22C20674,1309.63 20667.2,1313.43 20661.6,1316.73Z" style="fill:rgb(0,161,255);fill-opacity:0.17;"/>
                    </g>
                    <path d="M0.077,1744.25C0.077,1744.25 21.985,1750.25 39.981,1744.25C57.978,1738.25 105.968,1702.26 105.968,1702.26L177.954,1702.26C177.954,1702.26 219.946,1722.92 273.935,1724.58C327.924,1726.25 339.921,1716.92 369.916,1724.58C399.91,1732.25 423.905,1731.58 441.901,1746.91C459.897,1762.24 477.894,1755.58 543.881,1746.91C609.868,1738.25 615.866,1708.25 657.858,1702.26C699.85,1696.26 675.854,1714.25 741.841,1702.26C807.828,1690.26 783.833,1684.26 855.818,1702.26C927.804,1720.25 951.799,1726.72 987.792,1723.49C1023.78,1720.25 1065.78,1732.72 1101.77,1723.49C1137.76,1714.25 1167.4,1726.72 1197.57,1723.49C1227.74,1720.25 1245.74,1743.92 1293.73,1756.08C1341.72,1768.24 1341.72,1768.24 1371.72,1786.24C1401.71,1804.24 1443.7,1804.24 1497.69,1786.24C1551.68,1768.24 1605.67,1697.54 1647.66,1690.9C1689.65,1684.26 1719.65,1647.54 1773.63,1620.91C1827.62,1594.28 1845.62,1588.28 1881.61,1564.28C1917.61,1540.29 1899.61,1586.19 1941.6,1539.24C1983.59,1492.3 1929.6,1522.29 1983.59,1492.3C2037.58,1462.3 2061.58,1462.3 2097.57,1438.31C2133.56,1414.31 2198.04,1373.55 2198.04,1373.55C2198.04,1373.55 2205.55,1348.33 2229.54,1324.33C2253.54,1300.34 2277.53,1258.34 2277.53,1258.34C2277.53,1258.34 2319.53,1229.18 2337.52,1204.77C2355.52,1180.36 2350.63,1162.36 2395.07,1168.36C2439.5,1174.36 2463.5,1204.77 2463.5,1204.77L2499.49,1204.77L2541.48,1240.35L2631.46,1167.2L2685.45,1102.38L2757.44,1039.49C2757.44,1039.49 2799.43,964.403 2823.42,940.408C2847.42,916.413 2852.64,916.413 2880.03,862.424L2907.41,808.434C2907.41,808.434 2937.4,814.433 2985.39,844.427C3033.38,874.421 3051.38,886.419 3069.38,904.415C3087.37,922.411 3141.36,946.407 3159.36,952.406C3177.35,958.404 3201.35,958.404 3213.35,988.398C3225.34,1018.39 3249.34,1039.49 3249.34,1039.49C3249.34,1039.49 3279.33,1096.38 3327.32,1108.37C3375.31,1120.37 3417.31,1144.37 3417.31,1144.37C3417.31,1144.37 3423.3,1150.37 3459.3,1180.36C3495.29,1210.35 3519.29,1216.35 3537.28,1252.35C3555.28,1288.34 3584.31,1312.42 3614.79,1348.37C3645.26,1384.32 3681.25,1426.31 3699.25,1432.31C3717.25,1438.31 3705.25,1444.31 3753.24,1468.3C3801.23,1492.3 3825.22,1538.2 3849.22,1539.24C3873.21,1540.29 3909.21,1520.2 3933.2,1539.24C3957.2,1558.28 4011.19,1528.29 4041.18,1504.3C4071.18,1480.3 4089.17,1456.3 4113.17,1450.31C4137.16,1444.31 4143.16,1432.31 4161.16,1426.31C4179.15,1420.31 4137.16,1444.31 4179.15,1420.31C4221.15,1396.32 4287.83,1327.61 4287.83,1327.61L4341.12,1264.34C4341.12,1264.34 4401.11,1187.19 4419.1,1204.77C4437.1,1222.35 4436.01,1204.13 4509.09,1246.35C4582.16,1288.57 4587.07,1265.84 4611.07,1304.09C4635.06,1342.33 4605.07,1324.33 4665.06,1342.33C4725.04,1360.32 4743.04,1354.33 4785.03,1372.32C4827.02,1390.32 4767.04,1366.32 4827.02,1390.32C4887.01,1414.31 4851.02,1402.32 4941,1444.31C5030.98,1486.3 5096.97,1532.2 5132.96,1539.24C5168.96,1546.29 5180.95,1581.56 5216.95,1620.91C5252.94,1660.26 5252.94,1666.26 5282.93,1684.26C5312.93,1702.26 5390.91,1714.25 5426.9,1708.25C5462.9,1702.26 5576.87,1678.26 5576.87,1678.26C5576.87,1678.26 5606.87,1654.27 5630.86,1654.27C5654.86,1654.27 5760.05,1570.28 5760.05,1570.28L5760.05,3241L0.077,3241L0.077,1744.25Z" style="fill:rgb(2,60,186);fill-opacity:0.56;fill-rule:nonzero;"/>
                    <path d="M0.077,1736.5L27.284,1751.5L66.282,1756C66.282,1756 100.78,1751.5 124.78,1763.5C148.78,1775.5 156.277,1784.46 180.277,1792C204.277,1799.53 261.273,1814.5 261.273,1814.5C261.273,1814.5 316.269,1842.81 348.269,1842.99C380.269,1843.18 388.265,1863.81 420.265,1875.99C452.265,1888.18 486.761,1894.49 502.761,1898.49C518.761,1902.49 574.757,1937.49 574.757,1937.49L615.255,1988.72L681.052,2086.92C681.052,2086.92 769.052,2114.92 797.052,2118.92C825.052,2122.92 857.052,2110.92 893.052,2122.92C929.052,2134.92 973.052,2154.67 1009.05,2158.79C1045.05,2162.92 1082.05,2124.98 1098.05,2136.92C1114.05,2148.85 1117.05,2116.5 1153.05,2127.92C1169.05,2115.92 1178.05,2127.98 1214.05,2095.92C1250.05,2063.85 1322.05,2068.92 1322.05,2068.92L1358.05,2056.92C1394.05,2044.92 1417.05,2033.49 1441.05,2034.21C1465.05,2034.92 1477.05,2040.3 1513.05,2017.61C1549.05,1994.92 1561.05,1978.92 1601.05,1970.92C1641.05,1962.92 1649.05,1923.85 1701.05,1939.38C1753.05,1954.92 1737.05,1923.85 1801.05,1939.38C1865.05,1954.92 1964.19,1870.46 1992.19,1869.99C2020.19,1869.53 2063.18,1783 2103.18,1771C2143.18,1759 2167.18,1693.5 2199.18,1685.5C2231.18,1677.5 2263.67,1640.51 2299.67,1628.51C2335.67,1616.51 2379.67,1674 2407.67,1678C2435.67,1682 2408.66,1708 2476.66,1732C2544.66,1756 2577.16,1794 2601.16,1810C2625.16,1826 2641.15,1855.49 2673.15,1871.49C2705.15,1887.49 2710.65,1916.49 2734.65,1916.49C2758.65,1916.49 2775.15,1947.51 2823.15,1959.99C2871.15,1972.46 2853.05,1993.49 2905.05,2034.21C2957.05,2074.92 2957.05,2070.92 2989.05,2086.92C3021.05,2102.92 2973.05,2110.92 3061.05,2114.92C3149.05,2118.92 3149.05,2114.92 3217.05,2118.92C3285.05,2122.92 3251.05,2077.92 3315.05,2049.92C3293.72,2023.25 3319.05,1975.21 3403.05,1951.92C3487.05,1928.63 3473.05,1895.44 3509.05,1871.92C3545.05,1848.39 3597.05,1802.38 3621.05,1797.92C3645.05,1793.45 3681.05,1761.92 3701.05,1745.92C3721.05,1729.92 3753.05,1707.92 3777.05,1691.92C3801.05,1675.92 3821.05,1627.58 3837.05,1613.92C3853.05,1600.26 3899.05,1671.92 3939.05,1655.92C3979.05,1639.92 4025.05,1699.92 4041.05,1695.92C4057.05,1691.92 4067.05,1707.92 4079.05,1691.92C4091.05,1675.92 4104.85,1689.3 4097.05,1694.92C4141.05,1662.92 4153.05,1658.92 4173.05,1638.92C4193.05,1618.92 4233.05,1574.92 4233.05,1574.92C4233.05,1574.92 4241.05,1538.92 4269.05,1574.92C4297.05,1610.92 4341.05,1535.92 4341.05,1535.92L4431.05,1553.92L4507.05,1584.92C4507.05,1584.92 4569.05,1623.92 4589.05,1647.92C4609.05,1671.92 4603.05,1639.92 4635.05,1655.92C4667.05,1671.92 4671.05,1616.92 4683.05,1613.92C4695.05,1610.92 4731.05,1584.92 4731.05,1584.92C4731.05,1584.92 4748.43,1557.72 4768.43,1570.72C4788.43,1583.72 4781.05,1582.92 4793.05,1586.92C4805.05,1590.92 4837.05,1602.92 4849.05,1602.92C4861.05,1602.92 4889.05,1598.92 4889.05,1598.92C4889.05,1598.92 4915.05,1584.92 4939.05,1584.92C4963.05,1584.92 4985.05,1552.92 5013.05,1584.92C5041.05,1616.92 5049.05,1642.92 5073.05,1658.92C5097.05,1674.92 5101.05,1678.92 5133.05,1690.92C5165.05,1702.92 5145.05,1702.92 5173.05,1710.92C5201.05,1718.92 5165.05,1734.92 5269.05,1738.92C5373.05,1742.92 5409.05,1734.92 5429.05,1742.92C5449.05,1750.92 5417.05,1734.92 5449.05,1750.92C5481.05,1766.92 5545.05,1786.92 5565.05,1790.92C5585.05,1794.92 5603.05,1801.92 5603.05,1801.92C5603.05,1801.92 5629.05,1793.64 5653.05,1816.28C5677.05,1838.92 5649.05,1818.92 5677.05,1838.92C5705.05,1858.92 5717.05,1862.92 5729.05,1870.92C5741.05,1878.92 5760.05,1902.92 5760.05,1902.92L5760.05,3158L0.077,3158L0.077,1736.5Z" style="fill:rgb(0,61,184);fill-rule:nonzero;"/>
                    <path d="M0,2682.91C0,2682.91 165.052,2630.91 189.052,2626.91C213.052,2622.91 401.052,2538.91 413.052,2530.91C425.052,2522.91 497.052,2477 497.052,2477C497.052,2477 521.052,2454.91 605.052,2434.91C689.052,2414.91 701.052,2398.91 765.052,2382.91C829.052,2366.91 881.052,2338.91 945.052,2334.91C1009.05,2330.91 1089.05,2342.91 1137.05,2334.91C1185.05,2326.91 1196.23,2325.97 1212.23,2325.97C1228.23,2325.97 1300.22,2404.46 1308.22,2372.46C1316.22,2340.46 1422.21,2340.96 1446.21,2328.96C1470.21,2316.96 1495.71,2299.03 1531.71,2298.97C1567.71,2298.9 1622.2,2257.97 1650.2,2253.97C1678.2,2249.97 1744.7,2229.97 1744.7,2229.97C1744.7,2229.97 1813.19,2201.97 1845.19,2193.97C1877.19,2185.97 1894.19,2178.97 1938.19,2166.97C1982.19,2154.97 1998.18,2120.49 2046.18,2117.2C2094.18,2113.91 2089.05,2073.49 2153.05,2078.2C2217.05,2082.91 2237.05,2073.49 2281.05,2078.2C2325.05,2082.91 2361.08,2083.44 2395.07,2075.17C2429.05,2066.91 2481.05,2083.44 2517.05,2075.17C2553.05,2066.91 2565.05,2075.44 2613.05,2075.17C2661.05,2074.91 2649.05,2049.2 2713.05,2045.91C2777.05,2042.62 2800.05,1990.56 2845.05,1977.91C2890.05,1965.26 2907.05,1933.91 2967.05,1925.91C3027.05,1917.91 3037.05,1845.91 3081.05,1861.91C3125.05,1877.91 3151.05,1907.2 3187.05,1931.91C3223.05,1956.62 3329.05,2047.91 3365.05,2059.91C3401.05,2071.91 3447.05,2105.79 3479.05,2097.91C3511.05,2090.03 3549.05,2161.97 3597.05,2181.91C3645.05,2201.85 3697.05,2238.91 3717.05,2238.91C3737.05,2238.91 3773.05,2242.91 3817.05,2238.91C3861.05,2234.91 3841.05,2234.91 3897.05,2234.91L4017.05,2234.91C4041.05,2234.91 4025.05,2238.91 4081.05,2234.91C4137.05,2230.91 4133.05,2199.04 4181.05,2202.97C4229.05,2206.91 4253.05,2222.66 4273.05,2202.79C4293.05,2182.91 4417.05,2130.91 4417.05,2130.91C4417.05,2130.91 4509.05,2110.91 4549.05,2106.91C4589.05,2102.91 4625.05,2081.49 4677.05,2078.2C4729.05,2074.91 4753.05,2054.91 4833.05,2058.91C4913.05,2062.91 4937.05,2077.49 4985.05,2078.2C5033.05,2078.91 5073.05,2090.91 5121.05,2098.91C5169.05,2106.91 5209.05,2110.91 5245.05,2114.91C5281.05,2118.91 5305.05,2126.91 5333.05,2134.91C5361.05,2142.91 5401.05,2150.91 5453.05,2146.91C5505.05,2142.91 5537.05,2126.91 5569.05,2110.91C5601.05,2094.91 5629.05,2032.43 5649.05,2033.67C5669.05,2034.91 5717.05,2033.65 5717.05,2033.65L5760.05,2014.91L5760.05,3202L0.077,3202L0,2682.91Z" style="fill:rgb(0,52,165);fill-rule:nonzero;"/>
                    <path d="M0,2812.03L237.942,2812.03C237.942,2812.03 371.052,2809.91 377.052,2803.91C383.052,2797.91 379.052,2791.91 403.052,2783.91C427.052,2775.91 439.052,2773.91 449.052,2771.91C459.052,2769.91 455.052,2785.91 475.052,2771.91C495.052,2757.91 495.052,2749.91 533.052,2743.91C571.052,2737.91 587.052,2739.91 613.052,2731.91C639.052,2723.91 649.052,2721.91 679.052,2715.91C709.052,2709.91 713.199,2714.4 739.052,2699.91C764.904,2685.42 753.052,2685.91 777.052,2673.91C801.052,2661.91 799.052,2659.91 825.052,2651.91C851.052,2643.91 839.052,2643.91 867.052,2637.91C895.052,2631.91 895.052,2627.91 917.052,2619.91C939.052,2611.91 933.052,2607.91 971.052,2607.91C1009.05,2607.91 1007.05,2609.91 1039.05,2607.91C1071.05,2605.91 1067.05,2603.91 1103.05,2593.91C1139.05,2583.91 1117.05,2583.91 1161.05,2575.91C1205.05,2567.91 1181.05,2569.91 1227.05,2561.91C1273.05,2553.91 1279.05,2551.91 1303.05,2543.91C1327.05,2535.91 1315.05,2529.91 1355.05,2525.91C1395.05,2521.91 1387.05,2531.91 1417.05,2525.91C1447.05,2519.91 1455.05,2518.08 1471.05,2516C1487.05,2513.91 1489.05,2505.91 1521.05,2503.91C1553.05,2501.91 1541.05,2499.91 1577.05,2501.91C1613.05,2503.91 1583.05,2497.91 1631.05,2507.91C1679.05,2517.91 1647.05,2521.91 1699.05,2525.91C1751.05,2529.91 1767.05,2535.91 1799.05,2531.91C1831.05,2527.91 1805.05,2504.08 1851.05,2516C1897.05,2527.91 1867.05,2531.91 1923.05,2535.91C1979.05,2539.91 1959.05,2545.91 2011.05,2537.91C2063.05,2529.91 2083.05,2520.08 2113.05,2516C2143.05,2511.91 2149.05,2500.25 2171.05,2501.08C2193.05,2501.91 2203.05,2508.25 2229.05,2501.08C2255.05,2493.91 2273.05,2481.91 2293.05,2479.91C2313.05,2477.91 2437.05,2457.91 2437.05,2457.91C2437.05,2457.91 2487.26,2452.91 2509.05,2457.91C2531.05,2455.91 2524.72,2442.24 2559.05,2456.13C2644.54,2487.34 2641.05,2487.91 2665.05,2489.91C2689.05,2491.91 2705.05,2489.91 2719.05,2491.91C2733.05,2493.91 2753.05,2497.91 2775.05,2503.91C2797.05,2509.91 2781.05,2514.08 2827.05,2516C2873.05,2517.91 2897.05,2516 2897.05,2516C2897.05,2516 2965.05,2529.91 3005.05,2531.91C3045.05,2533.91 3093.05,2573.91 3093.05,2573.91C3093.05,2573.91 3123.05,2591.91 3135.05,2595.91C3147.05,2599.91 3147.05,2607.91 3173.05,2611.91C3199.05,2615.91 3207.05,2632.26 3239.05,2628.09C3271.05,2623.91 3275.05,2634.26 3307.05,2628.09C3339.05,2621.91 3335.05,2619.91 3369.05,2619.91C3403.05,2619.91 3389.05,2630.26 3433.05,2628.09C3477.05,2625.91 3477.05,2624.26 3511.05,2628.09C3545.05,2631.91 3529.05,2652.26 3581.05,2628.09C3633.05,2603.91 3653.05,2597.91 3679.05,2583.91C3705.05,2569.91 3745.05,2545.91 3765.05,2535.91C3785.05,2525.91 3799.05,2513.91 3833.05,2499.91C3867.05,2485.91 3905.05,2465.91 3923.05,2459.91C3941.05,2453.91 3977.05,2439.91 4001.05,2427.91C4025.05,2415.91 4065.05,2393.91 4087.05,2389.91C4109.05,2385.91 4163.05,2385.91 4169.05,2389.91C4175.05,2393.91 4185.05,2397.91 4225.05,2386.91C4265.05,2375.91 4263.05,2375.91 4295.05,2367.91C4327.05,2359.91 4347.05,2353.91 4363.05,2351.91C4379.05,2349.91 4411.05,2341.91 4435.05,2339.91C4459.05,2337.91 4477.05,2327.91 4497.05,2327.91C4517.05,2327.91 4559.05,2321.91 4579.05,2317.91C4599.05,2313.91 4609.05,2301.91 4625.05,2297.91C4641.05,2293.91 4653.05,2281.91 4673.05,2279.91C4693.05,2277.91 4785.05,2287.91 4821.05,2279.91C4857.05,2271.91 4917.05,2267.91 4947.05,2269.91C4977.05,2271.91 5005.05,2268.89 5051.05,2269.4C5097.05,2269.91 5107.05,2257.91 5169.05,2253.91C5231.05,2249.91 5247.05,2247.91 5297.05,2247.91C5347.05,2247.91 5337.05,2243.91 5367.05,2247.91C5397.05,2251.91 5391.05,2238.35 5433.05,2246.13C5475.05,2253.91 5477.05,2248.35 5535.05,2246.13C5593.05,2243.91 5593.05,2252.35 5619.05,2246.13C5645.05,2239.91 5703.05,2247.45 5709.05,2243.68C5715.05,2239.91 5760.05,2243.56 5760.05,2243.56L5760.05,3241L0.077,3241L0,2812.03Z" style="fill:rgb(0,50,153);fill-rule:nonzero;"/>
                    <path d="M0,2026.2L31.051,2060.2C31.051,2060.2 57.616,2092.2 93.051,2086.2C128.487,2080.2 111.049,2105.2 141.052,2090.2C171.055,2075.2 161.451,2080.2 203.052,2068.2C244.652,2056.2 276.048,2083.2 315.052,2080.2C354.056,2077.2 341.047,2116.2 389.052,2104.2C437.057,2092.2 463.047,2138.2 511.052,2138.2C559.057,2138.2 608.515,2162.2 641.052,2162.2C673.589,2162.2 731.046,2199.2 785.052,2196.2C839.057,2193.2 853.511,2243.2 895.052,2234.2C936.592,2225.2 922.047,2245.2 973.052,2236.2C1024.06,2227.2 1037.04,2258.2 1103.05,2252.2C1169.06,2246.2 1179.55,2272.2 1237.05,2278.2C1294.56,2284.2 1305.05,2306.2 1353.05,2318.2C1401.06,2330.2 1395.04,2327.19 1473.05,2348.2C1551.06,2369.2 1534.04,2403.2 1609.05,2400.2C1684.06,2397.2 1665.05,2412.2 1725.05,2418.2C1785.06,2424.2 1729.96,2586.85 1847.37,2568.85C1964.78,2550.85 1953.94,2913.95 2031.37,2913.95C2108.79,2913.95 2048.79,2919.95 2159.8,2919.95C2270.81,2919.95 2285.81,2925.95 2354.82,2916.95C2423.83,2907.95 2394.64,2910.95 2470.74,2892.94C2546.84,2874.94 2581.84,2859.94 2654.35,2850.94C2726.86,2841.94 2776.06,2835.94 2847.47,2832.94C2918.88,2829.94 2909.87,2844.94 2996.88,2826.94C3083.89,2808.94 3052.12,2808.94 3156.52,2802.93C3260.91,2796.93 3291.79,2799.93 3355.86,2802.93C3419.92,2805.93 3426.81,2805.93 3487.87,2811.94C3548.94,2817.94 3575.22,2814.94 3650.59,2802.93C3725.96,2790.93 3716.95,2787.93 3785.96,2778.93C3854.97,2769.93 3902.62,2757.93 3958.3,2745.93C4013.98,2733.93 4009.22,2719.74 4077.61,2723.83C4146,2727.93 4293.01,2793.93 4320.01,2799.93C4347.02,2805.93 4374.09,2808.94 4432.56,2829.94C4491.03,2850.94 4475.73,2847.03 4539.04,2863.53C4602.35,2880.04 4631.79,2882.17 4721.91,2881.59C4812.03,2881.01 4834.7,2879.13 4899.89,2863.53C4965.08,2847.94 4947.08,2850.94 5019.08,2835.94C5091.09,2820.94 5111.09,2808.94 5192.6,2796.93C5274.11,2784.93 5271.11,2778.93 5364.12,2775.93C5457.13,2772.93 5486.55,2775.93 5533.34,2763.93C5580.14,2751.93 5637.83,2736.93 5665.99,2739.93C5694.15,2742.93 5760.05,2748.93 5760.05,2748.93L5760.05,3241L0.077,3241L0,2026.2Z" style="fill:rgb(0,36,115);fill-rule:nonzero;"/>
                </g>
                <g transform="matrix(-5.85139,0,0,5.85139,2713.28,8963.64)">
                    <g id="Isolation-Mode" serif:id="Isolation Mode">
                        <path d="M67.757,-303.214C67.226,-299.067 68.494,-295.031 68.501,-290.914C68.503,-289.782 69.574,-289.296 70.565,-289.861C72.356,-290.882 73.315,-292.563 74.158,-294.351C75.934,-298.118 75.987,-302.163 76.048,-306.194C76.073,-307.898 76.286,-309.552 76.893,-311.123C79.078,-316.78 81.242,-322.447 83.569,-328.046C84.341,-329.904 84.863,-331.457 83.475,-333.294C82.158,-335.037 75.755,-346.804 73.855,-349.224C72.887,-350.456 71.779,-351.548 70.648,-352.616C69.89,-353.331 69.394,-353.17 69.124,-352.159C68.847,-351.119 68.607,-350.071 68.44,-349.001C67.835,-345.137 67.417,-341.213 66.076,-337.521C65.052,-334.703 68.03,-307.664 67.757,-303.214M-29.473,-562.866C-28.087,-563.468 -16.778,-567.55 -7.199,-567.748C2.505,-567.949 16.03,-560.333 17.47,-558.998C18.067,-558.445 18.773,-558.026 19.22,-557.377C21.157,-554.56 25.143,-535.655 26.02,-534.729C26.506,-534.216 26.748,-533.644 26.371,-532.884C26.046,-532.229 26.15,-531.453 26.268,-530.753C26.992,-526.468 24.491,-510.693 24.762,-506.925C24.92,-504.726 27.968,-482.715 28.165,-480.85C28.221,-480.319 28.306,-479.821 28.662,-479.406C30.975,-476.707 33.828,-474.709 36.893,-472.962C39.688,-471.369 42.705,-470.093 44.86,-467.541C45.352,-466.959 45.838,-466.397 46.208,-465.72C47.625,-463.124 83.33,-435.443 86.615,-433.042C87.923,-432.087 88.827,-430.748 89.96,-429.629C91.293,-428.312 92.718,-427.092 94.046,-425.767C95.194,-424.622 95.923,-423.278 96.471,-421.827C97.826,-418.236 99.587,-414.829 101.095,-411.308C102.209,-408.706 132.89,-334.533 132.697,-330.217C132.619,-328.484 131.798,-326.964 130.974,-325.531C129.358,-322.72 128.088,-319.749 126.659,-316.853C123.411,-310.269 86.568,-267.868 84.335,-267.006C84.15,-266.934 83.997,-266.656 83.925,-266.441C82.375,-261.839 79.447,-258.03 76.82,-254.047C76.403,-253.414 76.032,-252.75 75.662,-252.088C75.34,-251.513 75.411,-250.981 75.762,-250.402C77.192,-248.043 76.856,-246.331 74.696,-244.67C74.411,-244.45 74.144,-244.197 73.834,-244.022C72.742,-243.403 72.437,-242.57 72.747,-241.317C73.313,-239.027 73.384,-236.632 73.404,-234.313C73.431,-231.254 74.138,-228.367 74.839,-225.472C75.781,-221.577 87.89,-163.834 88.605,-159.026C89.033,-156.153 89.951,-153.447 90.813,-150.708C91.152,-149.63 91.232,-148.585 90.9,-147.431C90.163,-144.868 89.102,-142.489 87.534,-140.334C86.894,-139.455 86.675,-138.529 86.901,-137.407C87.255,-135.651 87.514,-133.875 87.276,-132.054C87.153,-131.109 87.781,-130.302 88.159,-129.484C88.603,-128.523 88.927,-127.538 89.017,-126.508C89.113,-125.416 89.35,-124.389 89.776,-123.384C90.118,-122.575 90.075,-121.788 89.647,-120.967C89.095,-119.907 88.708,-118.763 88.187,-117.686C87.431,-116.122 86.431,-114.741 85.022,-113.679C83.888,-112.824 83.797,-112.22 84.352,-110.881C85.367,-108.435 86.992,-106.326 88.113,-103.933C89.28,-101.439 89.817,-98.799 90.271,-96.123C90.371,-95.533 90.387,-94.919 90.564,-94.355C92.156,-89.278 92.988,-84.017 94.35,-78.885C95.246,-75.509 95.467,-72.037 95.793,-68.582C96.175,-64.532 97.431,-8.8 97.261,-1.052C97.239,-0.064 97.382,0.949 97.597,1.917C98.367,5.375 98.928,8.873 99.779,12.321C100.433,14.97 100.496,17.763 100.832,20.491C100.981,21.706 101.217,22.723 102.261,23.722C103.267,24.687 104.266,25.897 104.717,27.44C105.34,29.578 106.178,31.666 107.226,33.648C108.564,36.176 108.716,38.682 108.203,41.581C107.681,44.535 105.807,45.239 103.617,45.757C101.389,46.285 99.243,47.022 97.103,47.786C93.532,49.063 89.798,49.611 86.078,49.909C79.109,50.468 72.105,50.156 65.116,50.223C64.24,50.231 63.366,50.229 62.505,49.961C58.773,48.798 57.191,46.392 58.084,42.577C58.752,39.722 58.443,36.847 58.737,33.99C59.075,30.711 60.098,27.59 60.614,24.368C61.018,21.845 69.83,12.142 69.857,10.005C69.877,8.337 69.657,6.702 69.122,5.172C67.944,1.805 51.27,-63.759 50.759,-66.175C50.195,-68.838 49.519,-71.463 48.669,-74.029C47.618,-77.202 46.888,-80.514 45.257,-83.462C42.834,-87.841 41.86,-92.555 41.785,-97.486C41.754,-99.554 41.348,-101.527 40.749,-103.478C40.505,-104.271 39.944,-104.729 39.068,-104.768C36.231,-104.892 33.589,-105.561 31.122,-107.094C29.754,-107.944 28.111,-108.356 26.585,-108.946C24.888,-109.603 23.938,-110.804 23.811,-112.636C23.595,-115.753 22.679,-118.539 20.957,-121.255C19.464,-123.609 19.052,-126.547 18.49,-129.336C17.798,-132.772 17.412,-136.26 16.341,-139.634C14.932,-144.075 13.118,-148.413 12.624,-153.117C12.427,-154.987 12.456,-156.866 12.371,-158.736C12.094,-164.842 11.316,-170.894 10.72,-176.967C10.174,-182.532 9.296,-188.03 7.968,-193.468C7.068,-197.155 5.966,-200.778 4.893,-204.412C4.781,-204.789 4.712,-205.278 4.151,-205.138C3.716,-205.03 3.685,-204.593 3.747,-204.242C4.323,-200.971 3.7,-197.708 3.698,-194.442C3.696,-188.529 3.267,-182.62 3.457,-176.706C3.54,-174.113 3.748,-171.523 3.717,-168.925C3.671,-165.055 3.51,-161.241 2.427,-157.44C1.434,-153.95 1.578,-150.302 2.027,-146.644C2.397,-143.625 2.389,-140.534 2.083,-137.473C1.947,-136.124 1.753,-134.765 1.795,-133.417C1.871,-130.921 1.349,-128.492 1.154,-126.029C1.11,-125.473 1.018,-124.891 1.129,-124.359C1.722,-121.546 1.647,-118.725 1.344,-115.895C1.291,-115.392 1.341,-114.938 1.861,-114.665C2.649,-114.251 2.382,-113.736 2.007,-113.183C1.478,-112.402 0.606,-112.135 -0.16,-111.735C-1.163,-111.212 -1.436,-110.477 -1.314,-109.377C-1.093,-107.385 -0.678,-105.455 -0.121,-103.528C0.5,-101.38 0.745,-99.114 0.781,-96.902C0.861,-92.091 1.444,-87.366 2.366,-82.655C2.763,-80.627 2.668,-78.573 2.314,-76.487C1.52,-71.816 0.471,-67.176 0.57,-62.375C0.65,-58.485 -8.034,-4.189 -8.324,-2.176C-8.701,0.435 -8.902,3.045 -8.821,5.687C-8.767,7.44 -3.557,27.897 -3.572,29.756C-3.59,32.186 -5.15,33.663 -7.306,34.533C-10.748,35.922 -14.096,37.524 -17.497,38.995C-21.439,40.701 -25.533,42.053 -29.803,42.838C-33.14,43.451 -36.522,43.819 -39.826,44.558C-42.074,45.06 -44.158,46.165 -46.18,47.301C-49.38,49.099 -52.923,49.51 -56.468,49.708C-63.548,50.104 -70.575,49.274 -77.595,48.48C-78.697,48.355 -79.794,48.074 -80.86,47.756C-82.612,47.233 -83.557,45.939 -84.192,44.263C-84.859,42.505 -85.612,40.788 -85.701,38.879C-85.756,37.691 -86.452,36.237 -84.494,35.821C-84.354,35.792 -84.227,35.533 -84.16,35.356C-83.193,32.799 -54.578,16.795 -53.859,16.569C-50.215,15.421 -47.328,12.89 -43.928,11.307C-42.571,10.675 -41.27,9.863 -40.065,8.926C-39.499,8.486 -39.182,7.992 -39.287,7.299C-40.174,1.404 -39.345,-4.582 -40.356,-10.494C-41.031,-14.445 -41.574,-18.428 -41.387,-22.518C-41.243,-25.67 -41.948,-28.86 -42.256,-32.034C-42.403,-33.542 -42.627,-35.056 -42.608,-36.564C-42.545,-41.641 -42.645,-46.716 -42.893,-51.781C-43.294,-59.974 -42.997,-68.165 -43.06,-76.357C-43.075,-78.206 -43.301,-79.976 -43.647,-81.788C-44.132,-84.325 -44.399,-86.926 -44.501,-89.51C-44.64,-93.023 -44.534,-96.546 -44.536,-100.064C-44.537,-100.504 -44.538,-100.944 -44.564,-101.383C-44.701,-103.718 -44.817,-103.873 -47.031,-104.535C-51.704,-105.931 -56.217,-107.721 -60.54,-109.984C-60.822,-110.131 -61.118,-110.277 -61.424,-110.348C-63.871,-110.916 -64.331,-112.161 -64.144,-114.918C-64.013,-116.839 -64.07,-118.749 -64,-120.663C-63.971,-121.473 -64.366,-121.815 -65.162,-121.823C-65.718,-121.829 -66.277,-121.899 -66.827,-121.989C-69.325,-122.397 -69.892,-123.024 -69.948,-125.512C-70.015,-128.44 -70.738,-131.283 -71.027,-134.183C-71.258,-136.499 -71.147,-138.812 -71.115,-141.128C-71.055,-145.479 -64.856,-249.103 -65.941,-251.121C-66.367,-251.914 -66.362,-252.893 -66.377,-253.822C-66.41,-255.816 -66.255,-257.813 -66.568,-259.807C-66.709,-260.706 -67.1,-261.322 -67.768,-261.912C-70.482,-264.312 -72.656,-267.146 -74.301,-270.378C-75.169,-272.081 -76.08,-273.766 -76.865,-275.507C-78.969,-280.175 -80.682,-284.983 -81.682,-290.017C-81.848,-290.853 -82.177,-291.16 -82.992,-291.208C-86.572,-291.422 -90.145,-291.703 -93.713,-292.092C-96.2,-292.363 -135.356,-307.882 -139.551,-309.853C-141.538,-310.787 -143.524,-311.721 -145.534,-312.605C-147.22,-313.346 -148.506,-314.614 -149.724,-315.932C-150.551,-316.826 -151.319,-316.862 -152.484,-316.524C-158.254,-314.851 -164.081,-314.166 -169.506,-317.502C-171.477,-318.714 -173.498,-320.242 -173.803,-322.941C-173.868,-323.516 -174.233,-323.705 -174.779,-323.793C-178.803,-324.439 -180.745,-327.118 -180.16,-331.092C-180.033,-331.955 -180.005,-332.851 -180.073,-333.721C-180.409,-337.99 -180.514,-342.252 -179.855,-346.503C-179.779,-346.996 -179.778,-347.539 -180.285,-347.775C-181.512,-348.345 -182.159,-349.445 -182.907,-350.463L-182.907,-355.741C-181.108,-357.094 -178.956,-357.611 -176.875,-358.298C-175.106,-358.881 -175.053,-359.002 -175.01,-360.835C-174.946,-363.587 -175.147,-366.34 -174.824,-369.096C-174.47,-372.114 -171.723,-374.708 -168.67,-374.715C-167.351,-374.717 -166.057,-374.438 -164.73,-374.466C-160.498,-374.557 -156.265,-374.495 -152.041,-374.226C-150.578,-374.133 -149.049,-374.008 -147.917,-372.898C-147.483,-372.472 -147.079,-372.069 -146.51,-371.833C-145.246,-371.308 -144.754,-370.29 -144.734,-368.978C-144.721,-368.06 -144.766,-367.131 -144.648,-366.225C-144.421,-364.476 -144.097,-364.325 -142.65,-365.353C-140.903,-366.595 -139.181,-367.107 -137.074,-366.12C-134.66,-364.989 -133.878,-363.521 -134.737,-360.953C-135.244,-359.438 -135.838,-357.952 -136.344,-356.437C-136.699,-355.376 -136.887,-354.306 -136.692,-353.148C-136.369,-351.218 -135.131,-349.957 -133.772,-348.757C-131.886,-347.091 -131.541,-344.983 -132.035,-342.66C-132.446,-340.73 -133.529,-339.057 -134.227,-337.233C-134.566,-336.348 -134.408,-335.823 -133.478,-335.463C-132.037,-334.907 -130.55,-334.612 -129.03,-334.681C-123.962,-334.913 -118.891,-334.976 -113.822,-334.877C-110.324,-334.81 -106.835,-334.99 -103.354,-335.19C-100.814,-335.336 -98.308,-335.956 -95.88,-336.798C-95.219,-337.027 -95.06,-337.538 -95.018,-338.097C-94.941,-339.13 -94.929,-340.168 -94.905,-341.204C-94.786,-346.394 -94.917,-351.584 -94.74,-356.78C-94.545,-362.473 -93.392,-367.932 -91.732,-373.317C-90.686,-376.71 -90.23,-380.147 -90.369,-383.683C-90.48,-386.507 -86.818,-401.158 -85.904,-403.43C-84.913,-405.894 -83.44,-408.085 -82.397,-410.501C-81.352,-412.923 -79.899,-414.97 -77.681,-416.503C-74.704,-418.561 -60.895,-433.888 -59.703,-434.637C-57.525,-436.005 -55.978,-437.954 -54.37,-439.854C-51.291,-443.491 -48.91,-447.733 -44.891,-450.551C-42.193,-452.442 -39.79,-454.761 -36.724,-456.112C-36.127,-456.374 -35.61,-456.784 -35.219,-457.28C-33.687,-459.217 -32.266,-461.23 -30.576,-463.057C-29.153,-464.596 -29.326,-464.8 -31.384,-465.27C-31.618,-465.323 -31.851,-465.379 -32.084,-465.436C-32.69,-465.582 -33.224,-465.687 -33.582,-464.923C-33.913,-464.216 -34.45,-464.483 -34.819,-464.927C-35.249,-465.444 -35.766,-465.613 -36.403,-465.58C-37.212,-465.539 -37.977,-465.755 -38.759,-465.939C-40.038,-466.24 -50.078,-477.783 -50.46,-480.832C-50.518,-481.289 -50.153,-482.233 -51.316,-482.056C-51.509,-482.026 -51.512,-482.478 -51.413,-482.681C-50.436,-484.678 -50.983,-486.868 -50.605,-488.939C-50.54,-489.293 -50.482,-489.709 -50.834,-489.932C-51.683,-490.468 -51.284,-491.13 -50.996,-491.708C-50.703,-492.298 -50.643,-492.913 -50.492,-493.527C-50.111,-495.086 -50.565,-496.549 -50.887,-498.006C-51.158,-499.237 -51.495,-500.545 -52.173,-501.574C-53.236,-503.187 -54.166,-504.909 -54.729,-506.671C-55.618,-509.456 -56.553,-512.315 -56.291,-515.341C-56.19,-516.508 -56.436,-517.543 -57.256,-518.438C-57.746,-518.974 -58.061,-519.653 -58.14,-520.38C-58.653,-525.063 -57.065,-529.075 -54.149,-532.644C-53.67,-533.23 -53.016,-533.459 -52.252,-533.522C-50.98,-533.626 -47.608,-535.555 -46.89,-534.999C-46.218,-534.48 -44.349,-540.134 -44.126,-540.859C-43.578,-542.644 -33.39,-559.247 -32.94,-560.041C-32.149,-561.436 -30.893,-562.248 -29.473,-562.866Z" style="fill:rgb(0,36,115);fill-rule:nonzero;"/>
                    </g>
                </g>
            </g>
        </g>
    </g>
</svg>
