<?xml version="1.0" encoding="UTF-8" standalone="no"?>
<!DOCTYPE svg PUBLIC "-//W3C//DTD SVG 1.1//EN" "http://www.w3.org/Graphics/SVG/1.1/DTD/svg11.dtd">
<svg width="100%" height="100%" viewBox="0 0 1023 1019" version="1.1" xmlns="http://www.w3.org/2000/svg" xmlns:xlink="http://www.w3.org/1999/xlink" xml:space="preserve" xmlns:serif="http://www.serif.com/" style="fill-rule:evenodd;clip-rule:evenodd;stroke-linecap:round;stroke-linejoin:round;stroke-miterlimit:1.5;">
    <g transform="matrix(1,0,0,1,0,-1071)">
        <g id="phonemask" transform="matrix(0.850013,0,0,0.846267,0,1071.72)">
            <rect x="0" y="0" width="1202.74" height="1202.74" style="fill:none;"/>
            <g transform="matrix(1.17645,0,0,1.18166,-1584.35,-196.177)">
                <path d="M2271.14,574.296C2264.44,583.47 2259.15,593.597 2256.11,604.859C2252.45,618.412 2256.54,630.472 2264.04,641.769C2265.18,643.484 2266.6,645.261 2268.2,646.934C2268.19,647.109 2268.2,647.292 2268.24,647.492C2268.98,651.524 2268.99,655.549 2269.43,659.604C2269.44,659.774 2269.5,659.928 2269.57,660.068C2263.7,665.451 2258.85,671.901 2254.67,678.801C2248.27,689.404 2242.35,701.393 2241.91,713.967C2241.54,724.747 2248.8,733.277 2257.1,739.103C2261.46,742.168 2266.45,744.341 2271.44,746.168C2271.42,746.281 2271.38,746.382 2271.38,746.516C2271.44,749.307 2271.5,752.102 2271.6,754.892C2271.61,755.333 2271.78,755.651 2272.02,755.888C2269.08,759.463 2266.33,763.168 2264.65,767.731C2260.47,779.057 2259.07,788.432 2260.76,800.464C2261.52,805.862 2264.47,809.868 2268.2,813.258C2215.71,813.996 2163.57,812.465 2111.14,809.935C2084.65,808.659 2058.49,810.293 2032.06,811.95C2019.33,812.75 2006.58,813.296 1993.83,813.684C1986.96,813.894 1980.09,814.004 1973.22,814.113C1969.55,814.173 1955.04,816.521 1952.44,812.271C1954.89,777.55 1955.83,741.212 1952.11,706.532C1953.06,655.683 1953.61,604.825 1953.78,553.97C1953.86,528.876 1953.8,503.781 1953.65,478.687C1953.5,452.648 1954.02,426.403 1952.41,400.409C1952.4,400.159 1952.3,399.973 1952.17,399.834C1954.96,389.223 1956.51,378.387 1954.88,368.058C1953.89,361.777 1953.45,355.422 1952.84,349.099C1952.92,348.931 1952.98,348.742 1953,348.525C1954.55,330.724 1954.44,312.681 1954.36,294.821C1954.32,285.52 1954.34,276.072 1954.01,266.652C1954.56,264.553 1954.69,262.333 1954.84,260.176C1954.98,257.898 1955.13,255.553 1954.83,253.283C1954.79,251.046 1954.65,248.807 1954.65,246.531C1954.62,240.993 1974.09,243.241 1977.96,243.219C1994.02,243.137 2010.08,243.059 2026.14,242.99C2058.26,242.847 2090.38,242.737 2122.5,242.703C2154.63,242.664 2186.75,242.713 2218.88,242.87C2234.95,242.946 2251.01,243.06 2267.08,243.203C2275.63,243.281 2272.36,277.477 2272.9,283.459C2272.92,283.742 2273,283.978 2273.1,284.201C2272.99,285.258 2273.07,286.385 2273.03,287.382C2272.97,289.213 2272.61,291.187 2273.07,292.978C2272.85,299.08 2272.96,305.233 2272.81,311.216C2272.51,323.787 2272.2,336.354 2271.9,348.92C2271.32,373.466 2270.8,398.01 2270.49,422.558C2269.83,473.035 2268.99,523.84 2271.14,574.296Z" style="stroke:black;stroke-width:1px;"/>
            </g>
        </g>
    </g>
</svg>
