<?xml version="1.0" encoding="UTF-8" standalone="no"?>
<!DOCTYPE svg PUBLIC "-//W3C//DTD SVG 1.1//EN" "http://www.w3.org/Graphics/SVG/1.1/DTD/svg11.dtd">
<svg width="100%" height="100%" viewBox="0 0 919 910" version="1.1" xmlns="http://www.w3.org/2000/svg" xmlns:xlink="http://www.w3.org/1999/xlink" xml:space="preserve" xmlns:serif="http://www.serif.com/" style="fill-rule:evenodd;clip-rule:evenodd;stroke-linejoin:round;stroke-miterlimit:2;">
    <rect id="Artboard1" x="0" y="0" width="918.457" height="909.48" style="fill:none;"/>
    <g id="Artboard11" serif:id="Artboard1">
        <g transform="matrix(8.92308e-17,1.45725,-1.14308,6.99933e-17,996.737,-476.782)">
            <path d="M627.436,249.905C630.005,244.767 634.454,241.656 639.233,241.656C644.012,241.656 648.461,244.767 651.03,249.905C682.91,313.664 770.658,489.161 804.594,557.033C807.327,562.499 807.506,569.43 805.061,575.113C802.616,580.797 797.935,584.33 792.851,584.33L485.932,584.33C480.784,584.33 476.045,580.753 473.569,574.998C471.094,569.244 471.275,562.227 474.042,556.692C508.1,488.576 595.61,313.557 627.436,249.905Z" style="fill:white;"/>
        </g>
    </g>
</svg>
