<?xml version="1.0" encoding="UTF-8" standalone="no"?>
<!DOCTYPE svg PUBLIC "-//W3C//DTD SVG 1.1//EN" "http://www.w3.org/Graphics/SVG/1.1/DTD/svg11.dtd">
<svg width="100%" height="100%" viewBox="0 0 448 512" version="1.1" xmlns="http://www.w3.org/2000/svg" xmlns:xlink="http://www.w3.org/1999/xlink" xml:space="preserve" xmlns:serif="http://www.serif.com/" style="fill-rule:evenodd;clip-rule:evenodd;stroke-linejoin:round;stroke-miterlimit:2;">
    <path d="M388.3,104.1C387.972,101.899 386.123,100.218 383.9,100.1C381.9,100.1 346.7,99.3 346.7,99.3C346.7,99.3 325.1,78.5 317.1,70.5L317.1,503.2L442.8,472C442.8,472 388.7,106.5 388.3,104.1ZM288.7,70.5C286.783,64.447 284.375,58.561 281.5,52.9C271,32.9 255.4,22 237,22C235.655,21.953 234.309,22.088 233,22.4C232.6,21.6 231.8,21.2 231.4,20.4C223.4,11.6 213,7.6 200.6,8C176.6,8.8 152.6,26 133.3,56.8C119.7,78.4 109.3,105.6 106.5,126.9C78.9,135.3 59.7,141.3 59.3,141.7C45.3,146.1 44.9,146.5 43.3,159.7C42.1,169.7 5.3,451.5 5.3,451.5L307.9,504L307.9,65.7C306.427,65.755 304.959,65.889 303.5,66.1C302.041,66.311 297.9,67.7 288.7,70.5ZM233.4,87.7C217.4,92.5 199.8,98.1 182.6,103.3C187.4,84.5 197,65.7 208.2,53.3C212.6,48.9 218.6,43.7 225.4,40.5C232.2,54.9 233.8,74.5 233.4,87.7ZM200.6,24.4C205.639,24.257 210.621,25.503 215,28C208.6,31.2 202.2,36.4 196.2,42.4C181,58.8 169.4,84.4 164.6,108.9C150.2,113.3 135.8,117.7 122.6,121.7C131.3,83.3 163.8,25.2 200.6,24.4ZM154.2,244.6C155.8,270.2 223.5,275.8 227.5,336.3C230.3,383.9 202.3,416.4 161.8,418.8C113,422 86.1,393.2 86.1,393.2L96.5,349.2C96.5,349.2 123.3,369.6 144.9,368C158.9,367.2 164.1,355.6 163.7,347.6C161.7,314 106.5,316 102.9,260.7C99.7,214.3 130.1,167.4 197.4,163C223.4,161.4 236.6,167.8 236.6,167.8L221.4,225.4C221.4,225.4 204.2,217.4 183.8,219C154.2,221 153.8,239.8 154.2,244.6ZM249.4,82.9C249.4,70.9 247.8,53.7 242.2,39.3C260.6,42.9 269.4,63.3 273.4,75.7C266.2,77.7 258.2,80.1 249.4,82.9Z" style="fill:white;fill-rule:nonzero;"/>
</svg>
