<?xml version="1.0" encoding="UTF-8" standalone="no"?>
<!DOCTYPE svg PUBLIC "-//W3C//DTD SVG 1.1//EN" "http://www.w3.org/Graphics/SVG/1.1/DTD/svg11.dtd">
<svg width="100%" height="100%" viewBox="0 0 616 616" version="1.1" xmlns="http://www.w3.org/2000/svg" xmlns:xlink="http://www.w3.org/1999/xlink" xml:space="preserve" xmlns:serif="http://www.serif.com/" style="fill-rule:evenodd;clip-rule:evenodd;stroke-linejoin:round;stroke-miterlimit:2;">
    <g transform="matrix(1,0,0,1,-2660,0)">
        <g id="telegram" transform="matrix(1,0,0,1,-0.45828,0)">
            <rect x="2660.46" y="0" width="615.458" height="615.458" style="fill:none;"/>
            <g transform="matrix(1.19966,0,0,1.22824,1047.27,-77.9482)">
                <path d="M1826.8,155.684L1826.8,472.334C1826.8,506.316 1798.56,533.905 1763.77,533.905L1438.67,533.905C1403.88,533.905 1375.63,506.316 1375.63,472.334L1375.63,155.684C1375.63,121.702 1403.88,94.113 1438.67,94.113L1763.77,94.113C1798.56,94.113 1826.8,121.702 1826.8,155.684ZM1606.12,154.703C1513.25,154.703 1438.01,224.775 1438.01,311.261C1438.01,397.747 1513.25,467.819 1606.12,467.819C1698.98,467.819 1774.22,397.747 1774.22,311.261C1774.22,224.775 1698.98,154.703 1606.12,154.703ZM1684.07,261.2C1681.56,285.946 1670.58,346.045 1665.02,373.758C1662.65,385.5 1658.04,389.414 1653.56,389.792C1643.8,390.613 1636.41,383.795 1626.92,377.987C1612.15,368.96 1603.74,363.342 1589.44,354.504C1572.83,344.34 1583.61,338.722 1593.03,329.568C1595.54,327.169 1638.52,290.744 1639.33,287.462C1639.46,287.02 1639.53,285.505 1638.52,284.684C1637.5,283.863 1636.08,284.179 1635.06,284.368C1633.57,284.663 1609.93,299.203 1564.16,327.99C1557.47,332.283 1551.39,334.366 1545.92,334.24C1539.89,334.113 1528.37,331.083 1519.76,328.495C1509.25,325.338 1500.85,323.634 1501.59,318.205C1501.96,315.385 1506.14,312.502 1514.13,309.556C1563.12,289.692 1595.79,276.582 1612.15,270.228C1658.85,252.173 1668.54,249.017 1674.85,248.89C1676.27,248.89 1679.32,249.206 1681.35,250.721C1682.68,251.807 1683.53,253.316 1683.73,254.951C1684.09,257.015 1684.21,259.112 1684.07,261.2Z" style="fill:white;"/>
            </g>
        </g>
    </g>
</svg>
