<?xml version="1.0" encoding="UTF-8" standalone="no"?>
<!DOCTYPE svg PUBLIC "-//W3C//DTD SVG 1.1//EN" "http://www.w3.org/Graphics/SVG/1.1/DTD/svg11.dtd">
<svg width="100%" height="100%" viewBox="0 0 616 616" version="1.1" xmlns="http://www.w3.org/2000/svg" xmlns:xlink="http://www.w3.org/1999/xlink" xml:space="preserve" xmlns:serif="http://www.serif.com/" style="fill-rule:evenodd;clip-rule:evenodd;stroke-linejoin:round;stroke-miterlimit:2;">
    <g transform="matrix(1,0,0,1,-1330,0)">
        <g id="tiktok" transform="matrix(1,0,0,1,-0.45828,0)">
            <rect x="1330.46" y="0" width="615.458" height="615.458" style="fill:none;"/>
            <g id="tiktok--1-.svg" serif:id="tiktok (1).svg">
            </g>
            <g id="square-instagram--2-.svg" serif:id="square-instagram (2).svg" transform="matrix(1.20207,0,0,1.20207,1638.19,307.729)">
                <g transform="matrix(1,0,0,1,-224,-256)">
                    <path d="M448,96L448,416C448,451.3 419.3,480 384,480L64,480C28.7,480 0,451.3 0,416L0,96C0,60.7 28.7,32 64,32L384,32C419.3,32 448,60.7 448,96ZM362.911,227.427L362.911,173.227C348.14,173.239 333.687,168.903 321.362,160.762C303.868,149.485 291.77,131.485 287.936,111.027C287.122,106.484 286.727,101.875 286.758,97.26L232.186,97.26L232.186,313.937C232.171,339.306 211.292,360.173 185.923,360.173C160.545,360.173 139.661,339.289 139.661,313.91C139.661,288.532 160.545,267.648 185.923,267.648C190.635,267.648 195.32,268.368 199.815,269.783L199.815,214.032C195.212,213.392 190.57,213.071 185.923,213.071C130.607,213.071 85.089,258.589 85.089,313.905C85.089,369.222 130.607,414.74 185.923,414.74C241.228,414.74 286.741,369.241 286.758,313.937L286.758,203.056C308.957,218.958 335.604,227.486 362.911,227.427Z" style="fill:white;"/>
                </g>
            </g>
        </g>
    </g>
</svg>
