<?xml version="1.0" encoding="UTF-8" standalone="no"?>
<!DOCTYPE svg PUBLIC "-//W3C//DTD SVG 1.1//EN" "http://www.w3.org/Graphics/SVG/1.1/DTD/svg11.dtd">
<svg width="100%" height="100%" viewBox="0 0 616 616" version="1.1" xmlns="http://www.w3.org/2000/svg" xmlns:xlink="http://www.w3.org/1999/xlink" xml:space="preserve" xmlns:serif="http://www.serif.com/" style="fill-rule:evenodd;clip-rule:evenodd;stroke-linejoin:round;stroke-miterlimit:2;">
    <g transform="matrix(1,0,0,1,-1995,0)">
        <g transform="matrix(1,0,0,1,-0.45828,0)">
            <rect x="1995.46" y="0" width="615.458" height="615.458" style="fill:none;"/>
        </g>
        <g transform="matrix(1.19966,0,0,1.22824,381.808,-77.9482)">
            <path d="M1826.8,155.684L1826.8,472.334C1826.8,506.316 1798.56,533.905 1763.77,533.905L1438.67,533.905C1403.88,533.905 1375.63,506.316 1375.63,472.334L1375.63,155.684C1375.63,121.702 1403.88,94.113 1438.67,94.113L1763.77,94.113C1798.56,94.113 1826.8,121.702 1826.8,155.684ZM1669.17,235.819L1646.57,318.738L1623.89,235.819L1571.7,235.819L1548.8,319.349L1525.98,235.819L1466.54,235.819L1521.78,419.152L1573.06,419.152L1597.58,334.019L1622.1,419.152L1673.5,419.152L1728.61,235.819L1669.17,235.819Z" style="fill:white;"/>
        </g>
    </g>
</svg>
