<svg xmlns="http://www.w3.org/2000/svg" preserveAspectRatio="none" width="100%" height="100%" viewBox="0 0 1934.713 236.49">
  <g id="Group_5" data-name="Group 5"  transform="translate(0 364.716)">
    <path id="Path_6" data-name="Path 6" d="M156.537-301.907c5.679,1.58,11.633,3.1,17.381,4.878a2.195,2.195,0,0,0,.206.273q-10.015-2.839-20.031-5.761C154.919-302.317,155.71-302.132,156.537-301.907Zm22.613,5.657c2.2.546,4.715,1.983,7.331,2.742,4.165,1.19,8.5,2.013,11.359,3.329-7.4-2.022-14.8-4.051-22.2-6.144A12.2,12.2,0,0,1,179.15-296.25ZM223.1-284.764c1.273.528-.689.953,0,1.393-6.609-1.738-13.217-3.536-19.825-5.329C209.679-287.629,217.01-285.008,223.1-284.764Zm2.168,1.9c1.79-.486,4.647.5,7.263,1.146a4.69,4.69,0,0,0,1.789,1.241c-3.235-.832-6.436-1.646-9.671-2.493C224.891-282.931,225.03-282.9,225.271-282.861Zm43.746-57.147c15.076,4.619,31.39,7.994,47.119,11.832,21,4.531,44.71,9.64,68.425,14.754,23.887,4.771,47.842,9.42,68.837,14.164,4.75,1.1,9.5,1.9,14.215,2.581,13.8,2.049,27.5,4.082,41.2,6.111l20.445,3.213,20.514,2.99c2.96.444,5.4.854,8.226,1.206,8.329,1.021,20.72,2.53,25.883,3.158,2.065.246,3.167,1.14,4.922,1.371,12.735,1.789,25.848,3.334,38.377,4.4,5.679.466,11.152.288,16.934.8a7.6,7.6,0,0,0,2.926,1c8.157.528,16.108,1.212,23.921,1.908q11.771.881,23.2,1.505c44.882,2.7,94,8.027,131.549,9.875,3.373.145,5.92.975,9.327,1.173,5.989.348,11.668-.026,17.863.414,4.75.33,11.358,1.157,13.526,1.417a20.766,20.766,0,0,0,4.268-.381c9.224.856,18.621,1.289,27.191,1.828,2,.119,7.434-.832,8.26,1.576-14.215-1.144-28.292-.4-40.029-.517-8.914,0-23.508-1.254-32.526-1.895-2.616-.183-5.61.286-8.467.139-12.632-.546-25.3-1.84-36.656-2.592-4.922-.319-10.67-1.1-14.9.09-9.052-1.019-18.965-1.686-29.153-2.126-7.469-.376-15.041-.724-22.579-1.01C572.8-275.3,419.255-300.547,264.542-340.3A30.244,30.244,0,0,0,269.017-340.008ZM243.341-279c15.075,4.617,31.424,7.992,47.153,11.832,21,4.529,44.676,9.638,68.425,14.754,23.852,4.771,47.808,9.42,68.838,14.162,4.715,1.107,9.465,1.9,14.181,2.583q20.7,3.07,41.2,6.108l20.445,3.215,20.514,2.988c2.96.447,5.4.854,8.226,1.208,8.364,1.019,20.755,2.528,25.883,3.158,2.065.246,3.167,1.138,4.922,1.369,12.735,1.791,25.883,3.334,38.411,4.4,5.645.469,11.152.29,16.9.805a7.887,7.887,0,0,0,2.926,1c8.192.53,16.142,1.212,23.955,1.908,7.848.59,15.557,1.083,23.2,1.505,44.848,2.7,93.963,8.027,131.514,9.878,3.407.145,5.954.975,9.327,1.171,5.989.35,11.7-.024,17.9.414,4.715.332,11.358,1.16,13.526,1.417a20.886,20.886,0,0,0,4.268-.381c9.224.856,18.62,1.292,27.156,1.829,2.031.121,7.435-.832,8.295,1.578-14.249-1.146-28.327-.4-40.063-.517-8.914,0-23.508-1.256-32.491-1.895-2.65-.183-5.645.284-8.5.139-12.632-.546-25.263-1.842-36.656-2.594-4.887-.317-10.67-1.1-14.869.09-9.086-1.017-19-1.686-29.187-2.123-7.469-.378-15.041-.726-22.579-1.01-149-14.285-302.575-39.526-457.254-79.274A29.8,29.8,0,0,0,243.341-279Zm599.506,67.57,2.065.121-.172,1.252-2.065-.121Zm348.765,16.778c1.514,0,6.23-1.345,6.436.924-19.515.781-40.855.933-62.5,1.34-21.684.537-43.746.218-64.776.187C1112.036-194.358,1154.027-194.76,1191.612-194.652ZM0-287.059v11.035c.309.095.585.211.86.3v147.494H1934.713V-317.847c-1.239.453-2.822,1.243-3.717,1.536-3.339,1.083-3.063,1.747-5.473,2.033-1.618.187-2.065,1.113-2.581,1.292-6.333,2.172-11.427,3.488-14.628,5.521-3.786,2.423-10.532,4.293-16.59,5.987a74.916,74.916,0,0,1-6.884,3.58c-1.446.568-3.407.634-4.922,1.127-1.824.588-1.859,1.567-3.3,2.088-2.926,1.056-6.471,1.765-9.534,2.852-3.235,1.142-6.092,2.478-9.224,3.446a111.91,111.91,0,0,1-13.905,3.041c-1.342.227-3.063,1.331-4.647,1.674-3.3.726-6.609.717-10.257,1.567-3.407.79-6.333,2.115-9.637,2.759-6.436,1.281-13.354,1.212-19.275,3.351-4.853-.827-9.5,1.384-14.284,2.284-4.681.871-9.913,1.485-14.284,2.275-3.855.645-8.192,1.043-12.356,1.736-5.094.847-10.911,2.924-16.624,1.908-1.618,1.7-4.853.385-6.436,2.57a152.662,152.662,0,0,0-15.385,2.253c-.379.068-.826,1.186-2.719,1.155-.757-.015-1.308-1.034-2.581-.843,0,0-.86,1.4-1.48,1.576a3.784,3.784,0,0,1-3.545-.66c5.232-1.829,10.739-3.2,16.28-4.944,1.583-.506,1.824-1.587,2.444-1.789,1.2-.383,2.306.466,4.3-.176,2.891-.929,5.507-2.044,8.432-2.949,22.992-7,47.292-14,68.39-21.045,5.61-1.89,11.186-3.769,16.8-5.651,2.443-.843,4.956-2.181,7.228-2.9,3.614-1.14,7.331-1.19,10.842-2.354,1.618-.53,2.719-1.593,4.268-2.282,1.652-.737,3.648-1.241,5.541-1.934,8.777-3.3,22.269-6.907,34.729-10.7,1.1-1.039,1.446-.471,2.926-.7a29.6,29.6,0,0,0,3.889-.931c10.773-2.841,19.619-5.175,31.631-8.335,2.168-.568,4.371-1.133,6.574-1.7v-34.263a80.781,80.781,0,0,1-8.673,2.038c-5.955.926-12.115.2-17.485,1.661-3.1.838-4.887,3.452-6.505,3.646-2.788.323-5.954,2.544-8.811,3.463-1.308.427-3.648.136-5.094.55-5.094,1.468-10.98,3.142-16.762,4.7-11.5,3.048-22.028,7.4-33.49,7.715-7.847.218-11.221,3.937-17.278,5.853-3.786,1.21-8.639,2.288-13.182,3.532-9.706,2.654-18.448,4.038-27.053,5.769-4.475.915-8.192,2.555-12.322,3.2-4.646.72-9.947.372-14.49,1-2,.275-5.094.319-7.056.783-1.721.407-3.3,1.908-5.266,2.335-2.444.524-4.646.178-7.125.722s-4.887,1.562-7.5,2.112c-4.337.909-9.4,1.074-13.94,2.044-2.34.5-3.58,1.91-5.3,2.341-2.444.64-5.541.519-8.088.852-4.578.6-9.5.753-14.249,1.281-2.616.295-5.369,1.138-7.848,1.424-2.547.293-5.163-.31-7.366.033-2.272.348-4.956,1.474-7.572,2.031-2.513.541-6.3,1.03-8.846,1.547-5.679,1.188-10.911,2.986-16.211,4.04-2.306.46-4.784.2-7.125.554-2.719.4-5.094,1.487-7.641,1.939-5.851,1.028-11.7,1.525-16.762,2.768-3.924.99-7.641,3.529-9.913,4.137a15.8,15.8,0,0,1-4.2.007c-6.092,1.719-10.36,3.849-15.936,5.074a5.789,5.789,0,0,1-2.2-.306c-1.033.121-.929.777-1.755.924-4.853.858-8.536,1.2-9.913,1.534-2,.486-3.648,1.021-5.748,1.459-23.095,4.874-46.844,9.345-70.077,12.188-7.4.951-15.97,2.218-24.162,3.43-8.192,1.151-16,2.163-21.787,2.836a9.476,9.476,0,0,0-3.2-.275c-3.063.506-2.96,1.536-3.683,1.7-1.583.365-4.406-.2-6.2.073-2.34.356-4.406,1.08-5.886,1.307-1.239.2-1.549-.517-3.167-.271-1.686.253-2.719.819-4.853,1.19-4.991.893-10.05,2.445-15.833,2.957a67.541,67.541,0,0,1-12.425-.037c-3.3.933-5.782,2.57-9.947,1.626-2.96,1.08-6.333,2.324-9.947,1.626-7.779.081-16.142,2.253-24.128,2.9-11.565,1.017-23.439,1.644-35.451,2.988-3.993.458-8.4.964-12.942,1.487l-13.733,1.331c-9.052.825-17.485,1.452-22.957,1.413-1.033-.007-1.136.658-1.962.766-16.59,2.28-32.629,1.545-44.848,2.031-.551.022-9.052,1.107-9.052,1.107a7.256,7.256,0,0,0-2.134-.524c-7.434.046-11.84,1.076-17.175,2.165-1.067-1.78-1.583-.625-4.13-.416-14.869,1.094-29.428,1.877-43.918,2.53-7.262.3-14.49.625-21.753.75-7.3.081-14.594.1-21.994.066-10.67-.057-21.305.11-32.423.284-11.083.174-22.544-.013-34.9-.233-5.06-.11-9.052.689-12.219.629-3.614-.073-7.641-1.281-11.221-1.261-4.44,0-8.949,1.219-13.286,1.21-4.165.011-8.742-.636-13.217-.88-4.853-.271-10.36-.8-15.248-.92-4.509-.112-8.811.517-13.251.383-20.307-.44-40.132-3.1-60.921-3.208-.344-2.044-4.13-.761-6.023-.858-8.123-.44-17.141-.92-25.263-1.749-4.647,2.2-10.222.533-15.351.365-20.789-.713-43.884-1.8-66.256-3.908-22.407-1.928-44.366-3.721-62.849-5.862-3.786-.392-9.706-.348-12.184-.594-3.958-.392-5.473-1.886-8.708-2.152-4.956-.4-10.532.561-13.871-2.031-11.7.64-21.133-3.611-30.323-2.2-8.983-2.937-19.619-2.462-29.875-3.688-4.888-.579-9.878-1.939-14.766-2.458-12.356-1.4-29.29-2.942-37.035-4.049-2.065-.31-4.991-1.785-7.675-1.774-1.342,0-2.168.924-3.408.79a10.842,10.842,0,0,0-2.753-1.05,23.473,23.473,0,0,0-4.165.033c-3.1-.423-5.163-1.441-7.71-1.774-5.128-.689-10.188-.387-15.248-1.061-5.782-.7-11.53-1.617-16.934-2.253-11.6-1.362-21.615-2.321-31.218-3.4-6.781-.779-15.282-2.568-18.655-3.237a1.536,1.536,0,0,0-1.274.411c-11.255-1.413-20.135-2.885-28.774-4.355a8.176,8.176,0,0,0-2.616-1.177c-1.859-.326-2.409.09-4.2-.165-6.127-.871-10.36-1.947-15.592-3.065-2.409-.519-6.023.172-6.505-1.939-2.891-.6-5.851.79-7.125-.739-22.441-3.712-48.29-11.218-70.937-14.457-1.859-.251-2.892-.418-5.094-.57-4.956-.374-8.846-2.159-13.286-3.345-6.126-1.635-11.288-2.6-16.176-4.058-1.755-.532-3.373-1.529-5.335-2.02-3.407-.845-10.669-1.448-12.114-1.692-1-.167-.758-.891-1.55-1.056-2-.433-3.82-1.021-5.679-1.43-1.446-.363-6.265-1.569-6.643-1.668-10.256-2.376-20.686-5.1-31.321-7.939-14.662-4.009-31.493-8.516-43.987-12.311-4.509-1.487-9.774-4.007-14.283-5.125-3.718-.937-7.916-.654-11.393-1.441-2.581-.592-4.682-2.154-6.919-2.847-1.721-.535-2.409-.156-4.1-.581-1.583-.387-1.893-1.234-3.683-1.14A88.566,88.566,0,0,1,115.2-359.16c-1.928,2.121,3.235,2.786,5.128,3.692,1.17.557,1.617,1.866,1.893,1.983,1.687.66,3.476-1.369,4.577.02-1.652,1.609,2.1,2.1,3.3,3.127,3.511,2.119,4.1-.777,7.331.876,9.053,5.655,20.893,9.2,32.491,12.848a1.449,1.449,0,0,1,1.343-.308c11.289,3.565,25.883,8,38.17,11.369,11.634,3.12,23.2,6.751,34.867,9.618,2.994.731,5.4,1.485,8.6,2.159,10.222,2.167,19.515,5.272,29.634,7.437,3.27.7,6.816,1.254,9.913,1.813,2.857.524,4.922,1.162,7.641,1.921,3.167.891,5.782,2.084,9.19,2.986,1.446.345,3.717.095,5.2.488,2.238.607,2.513,1.3,4.509,1.672,6.023,1.122,12.288,1.215,18.1,2.711,4.061,1.05,7.848,2.861,11.944,4,1.79.5,2.994.026,5.163.486,1.583.339,2.994,1.382,4.509,1.679,3.58.7,7.469,1.1,10.98,1.787,3.339.645,6.884,1.245,10.429,1.831,3.58.532,7.125,1.109,10.36,1.855,3.752.863,7.331,2.709,11.186,3.512,8.708,1.831,19.412.51,26.468,5.215,7.469.94,13.355,2.355,19.894,3.263,15.385,1.787,34.729,3.362,48.84,5.127,6.058.75,9.706.583,13.355.981,5.025.554,10.016,2.165,14.834,2.418.069.007,1.273-1.043,1.48-1.072,3.167-.455,8.949.777,11.186.99,7.3.706,13.7,2.8,18.689,3.4,1.824.211,4.578-.462,6.4-.35,3.063.178,5.473.94,7.985,1.171,6.54.572,13.6,1.3,20.754,2.148a174.785,174.785,0,0,1,21.2,3.463,47.176,47.176,0,0,0,6.849,1.481,90.456,90.456,0,0,0,14.594-.119c.964-.1,1.687.858,1.824.865,9.121.7,20.135,1.974,28.258,2.7,2.822.293,5.954,1.2,8.914,1.532,2.753.277,5.232.528,8.088.814,3.648.365,7.71.6,11.083,1.118,4.027.621,7.882,2.066,11.806,2.467s7.882-.313,11.393-.123a8.39,8.39,0,0,1,2.891.933c1.618.33,3.786-.266,4.165-.218,4.3.544,15.351,1.862,19.137,2.194a16.1,16.1,0,0,1,4.2-.308c4.509.676,9.052,2.33,13.836,3,6.849.961,14.766,1.637,19.171,2.15,1.824.213,4.337-.328,6.2-.136,4.165.442,8.02,1.144,12.115,1.459,1.859.156,4.578-.414,6.23-.268,2.031.178,2.857,1.349,4.887,1.545,16.211,1.553,35.279,1.648,45.846,3.307a31.994,31.994,0,0,0,5.128.255c12.941,1.1,26.089,2.106,39.237,3.1,13.182,1.012,26.365,2.035,39.444,2.746,8.054.5,15.97,2.137,23.577,2.328,4.233.11,11.083-.911,13.423-1,1.859-.075,3.339.713,5.128.726,20.479.04,39.513-.253,58.684-.5,13.32-.1,25.986.357,39.169.145,13.871-.332,28.774-.356,43.574-.951,14.8-.579,29.462-1.245,42.851-2.115,5.61-.376,11.22-.416,14.422-.565,2.34-.079,4.991-.2,7.193-.376,14.8-1.155,29.669-2.088,44.572-2.927,14.9-.909,29.772-2.027,44.641-3,7.848-.563,15.729-1.164,23.577-1.967,7.813-.816,15.626-1.633,23.4-2.313q15.747-1.333,31.046-2.621c10.153-1,20.169-1.98,30.116-2.955,9.947-1.014,19.825-1.954,29.635-3.129,9.775-1.219,19.516-2.5,29.29-3.893,3.683-.535,7.09-1.516,10.98-1.9,3.373-.332,7.779.4,11.53-.042,1.342-.178,3.063-.867,4.887-1.267,5.782-1.292,10.257-1.82,17-2.83,8.26-1.245,16.624-2.1,25.263-3.25,4.819-.592,13.561-2.9,17.726-3.738,1.239-.246,1.652.449,3.235.187,5.094-.841,13.974-3.087,18.724-3.956,1.239-.224,1.618.46,3.2.185,13.148-2.137,28.877-5.644,40.476-8.051,2.375-.5,3.924.121,6.23-.33,3.683-.728,6.677-2.1,10.532-2.935,1.067-.233,1.824.321,2.237.3,1.549-.084,1.893-.917,2.753-1.078,11.7-2.242,20.135-5.272,30.116-7.026,4.337-.766,9.809-1.276,14.181-1.747,4.853-.493,9.6-.629,14.421-1.252,15.8-2.126,35.486-6.034,46.81-7.963,8.054-1.309,17.381-4.086,26.915-4.566-7.262,3.53-16.9,5.107-25.5,7.58-9.224,2.7-18.345,5.244-27.4,8.362-1.927.662-3.58,1.646-5.438,2.3-7.641,2.632-14.146,4.412-20.858,6.4-4.887,1.377-9.74,2.412-14.525,3.752-5.335,1.494-9.431,3.017-12.563,3.419-7.366,2.084-14.972,4.209-22.82,6.1s-15.9,3.677-24.093,5.365c-8.329,1.7-16.659,3.673-25.091,5.49-8.432,1.8-16.934,3.6-25.5,5.241-1.032.2-1.411-.442-2.237-.323a19.574,19.574,0,0,1-2.857,1.047c-5.954,1.375-12.7,2.911-18.93,3.961-16.9,2.744-35.141,4.566-52.764,8.058-1.824.335-2.926,1.384-4.784,1.824-1.824.436-5.163.473-7.194.821a205.937,205.937,0,0,1-23.646,2.7c-5.851.321-16.865,1.615-20.72,1.7-1.308.033-4.337-.2-5.3-.108-3.132.286-10.36,2.09-13.079,2.577-1.033.178-1.411-.515-2.237-.418-6.058.735-12.253,2.068-18.414,2.471-7.882.484-14.972-1.08-21.684,2.075-2.375-.88-4.818-.722-7.5-.638a18.038,18.038,0,0,0-3.992.973c-1.962.207-2.409-.411-4.268-.275-6.161.462-13.182,1.494-19.653,1.655-5.369.134-10.67-.726-15.867-.566-5.266.163-11.117.937-16.555,1.175-6.815.279-11.7-.37-15.729-.185-2.065.095-5.2.942-7.125,1.12-11.909,1.054-22.3-.224-31.355.119-2.513.119-4.509,1-7.159,1.008a11.4,11.4,0,0,0-2.237-1.149c-3.889-.436-4.3.973-7.159,1.006-1.48.015-2.065-.473-4.233-.411-8.57.24-17.347,1.032-24.919.671-2.891-.139-4.3-.918-7.366-.876-3.648,0-6.471.843-10.326,1-3.614.143-7.71-.317-11.427-.229-21.753.513-44.125,1.9-60.13,1.162-1.893-.068-4.1.018-6.2.112-5.542.242-11.909.986-15.523,1.536a38.873,38.873,0,0,1-4.13.075c.241-.015-.482-.579-1.067-.612-1.033-.059-1.2.632-2.065.669-1.136.046-2.65-.031-4.13.075-3.958.273-6.608.048-10.36.187-15.041.273-29.807.957-44.5,1.551-7.331.282-14.628.6-21.925.72-7.3.044-14.559,0-21.787-.2-6.884-.191-13.94-.911-20.72-1.019-7.125-.119-13.905.955-20.858.871-7.021-.218-22.372-2.09-30.977-2.445-4.1-.165-7.538.4-11.461.2-7.228-.376-14.284-1.019-21.305-1.6-6.987-.623-13.94-1.373-20.961-1.644-15.557-.649-29.084-1.415-43.368-2.526-10.463-.812-20.617-1.62-30.874-2.337-2.891-.211-13.182-1.677-15.316-1.844-5.4-.429-23.061-.555-27.019-.869-.516-.055-1.17-.746-.86-.728-5.232-.335-10.5.13-15.661-.3-4.681-.394-9.121-1.624-14.181-2.073-19.412-1.725-39.719-3.6-59.82-4.605-13.389-.871-30.874-4.553-48.083-5.307-7.813-.508-16.142.158-23.474-2.808-5.06,1.382-10.36-.957-16.452-1.769-6.23-.832-14.181-.788-20.72-1.749-3.614-.548-6.987-1.25-10.257-1.978a88.1,88.1,0,0,0-9.672-1.859c-3.855-.464-7.572-.207-11.53-.676a8.409,8.409,0,0,1-2.788-1.127c-1.755-.447-3.339.1-4.268-.079-2.926-.588-5.714-1.591-8.777-2.159-2.891-.526-5.61-.227-8.295-.768-1.583-.312-3.958-1.994-4.509-2.075a6.216,6.216,0,0,1-2.272.262c-7.779-1.32-17.072-1.611-24.609-3.081-2.822-.517-5.782-1.961-8.674-2.368-2.1-.3-4.44.2-6.505.031-12.288-1-23.542-5.107-36.759-5.259-4.3-2.405-10.429-2.676-15.626-3.8-.688-.154-5.232-1.232-7.847-1.76-11.255-2.264-17.9-4.17-25.608-5.719-15.661-3.2-25.883-5.73-38.687-8.073-3.786-.739-6.092-1.571-7.744-1.954-9.4-2.141-20.1-4.958-26.605-6-2.685-.434-4.681-.22-7.159-1.125-4.544-.968-5.094-.557-8.742-2.2a60.325,60.325,0,0,1-20.927-2.583c-10.085-3.149-31.975-7.814-45.054-12.622-4.509-1.664-8.192-4.933-12.736-6.322-3.269-.992-8.053-1.138-11.357-1.8-4.268-.957-8.192-1.9-11.7-2.929-5.644-1.639-10.222-4-15.557-5.532-4.268-1.223-9.293-1.708-14.043-2.955-5.473-1.448-10.842-3.552-16.934-5.261-2.271.585-2.891-1.558-4.268-2.027-2.1-.706-4.749-.757-7.022-1.479-4.784-1.441-8.948-3.131-13.939-4.654-9.775-3.089-19.928-6.168-29.978-9.554-8.743-2.99-17.692-6.056-26.778-9.16C9.258-361.453,4.612-363.174,0-364.716v13.343c.275.086.516.178.792.264.034.009.034.018.069.026v25.89c-.276-.128-.586-.266-.86-.4v11.037c.275.079.585.158.86.235v27.5C.585-286.9.309-286.982,0-287.059Z" transform="translate(0 0)" fill="#fff" fill-rule="evenodd"/>
  </g>
</svg>
