<?xml version="1.0" encoding="UTF-8" standalone="no"?>
<!DOCTYPE svg PUBLIC "-//W3C//DTD SVG 1.1//EN" "http://www.w3.org/Graphics/SVG/1.1/DTD/svg11.dtd">
<svg width="100%" height="100%" viewBox="0 0 616 616" version="1.1" xmlns="http://www.w3.org/2000/svg" xmlns:xlink="http://www.w3.org/1999/xlink" xml:space="preserve" xmlns:serif="http://www.serif.com/" style="fill-rule:evenodd;clip-rule:evenodd;stroke-linejoin:round;stroke-miterlimit:2;">
    <g transform="matrix(1,0,0,1,-1995,0)">
        <g id="youtube" transform="matrix(1,0,0,1,-0.45828,0)">
            <rect x="1995.46" y="0" width="615.458" height="615.458" style="fill:none;"/>
            <g transform="matrix(1.19966,0,0,1.22824,382.266,-77.9482)">
                <path d="M1826.8,155.684L1826.8,472.334C1826.8,506.316 1798.56,533.905 1763.77,533.905L1438.67,533.905C1403.88,533.905 1375.63,506.316 1375.63,472.334L1375.63,155.684C1375.63,121.702 1403.88,94.113 1438.67,94.113L1763.77,94.113C1798.56,94.113 1826.8,121.702 1826.8,155.684ZM1753.74,238.921C1750.07,225.429 1739.29,214.841 1725.59,211.254C1700.76,204.708 1601.22,204.708 1601.22,204.708C1601.22,204.708 1501.67,204.708 1476.84,211.254C1463.14,214.841 1452.36,225.429 1448.69,238.921C1442.04,263.343 1442.04,314.237 1442.04,314.237C1442.04,314.237 1442.04,365.13 1448.69,389.552C1452.36,403.044 1463.14,413.177 1476.84,416.764C1501.67,423.311 1601.22,423.311 1601.22,423.311C1601.22,423.311 1700.76,423.311 1725.59,416.764C1739.29,413.177 1750.07,402.987 1753.74,389.552C1760.39,365.13 1760.39,314.237 1760.39,314.237C1760.39,314.237 1760.39,263.343 1753.74,238.921ZM1568.69,360.462L1568.69,268.011L1651.86,314.237L1568.69,360.462Z" style="fill:white;"/>
            </g>
        </g>
    </g>
</svg>
